<svg width="36" height="36" viewBox="0 0 36 36" fill="none" xmlns="http://www.w3.org/2000/svg">
    <g clip-path="url(#clip0)">
        <path d="M7.48438 25.6641H13.8096V36.9995H7.48438V25.6641Z" fill="#A5ACCB"/>
        <path d="M13.81 8.78906H7.48476V10.5778C7.48476 11.227 7.23198 11.837 6.77228 12.2962C6.31384 12.755 5.70395 13.0078 5.05469 13.0078H4V19.3359H5.05469C6.39463 19.3359 7.48476 20.426 7.48476 21.7659V23.5547H13.81V8.78906Z" fill="#A5ACCB"/>
        <path d="M29.3913 4.79102C25.9277 7.03117 20.7134 8.56546 15.918 8.76592V23.5776C20.7141 23.778 25.9284 25.3123 29.3913 27.5524V4.79102Z" fill="#A5ACCB"/>
        <path d="M39.998 16.1724C39.998 14.4509 39.1686 12.9196 37.8886 11.9565C37.2751 11.4949 36.5581 11.1638 35.7792 11.005V1H31.5V31.3448H35.7792V21.3397C36.5581 21.181 37.2751 20.8499 37.8886 20.3882C39.1686 19.4252 39.998 17.8939 39.998 16.1724Z" fill="#A5ACCB"/>
    </g>
    <defs>
        <clipPath id="clip0">
            <rect width="36" height="36" fill="white"/>
        </clipPath>
    </defs>
</svg>
