<svg width="36" height="36" viewBox="0 0 36 36" fill="none" xmlns="http://www.w3.org/2000/svg">
    <g clip-path="url(#clip0)">
        <path d="M32.8341 9.28153H35.9982V2.20521C35.9982 1.77841 35.7416 1.39381 35.3471 1.23068C34.9534 1.06756 34.4992 1.15756 34.1975 1.4592L1.45724 34.1996C1.1556 34.5012 1.0656 34.9554 1.22873 35.3492C1.39185 35.7436 1.77646 36.0003 2.20326 36.0003H9.27952V33.1878C9.27952 32.6056 9.75202 32.1331 10.3342 32.1331C10.9164 32.1331 11.3889 32.6056 11.3889 33.1878V36.0003H14.2014V33.1878C14.2014 32.6056 14.6739 32.1331 15.2561 32.1331C15.8383 32.1331 16.3108 32.6056 16.3108 33.1878V36.0003H19.1233V33.1878C19.1233 32.6056 19.5958 32.1331 20.178 32.1331C20.7601 32.1331 21.2326 32.6056 21.2326 33.1878V36.0003H24.0452V33.1878C24.0452 32.6056 24.5177 32.1331 25.0998 32.1331C25.682 32.1331 26.1545 32.6056 26.1545 33.1878V36.0003H28.967V33.1878C28.967 32.6056 29.4395 32.1331 30.0217 32.1331C30.6039 32.1331 31.0764 32.6056 31.0764 33.1878V36.0003H34.9436C35.5258 36.0003 35.9983 35.5278 35.9983 34.9456V31.0784H33.1858C32.6036 31.0784 32.1311 30.6059 32.1311 30.0237C32.1311 29.4415 32.6036 28.969 33.1858 28.969H35.9983V26.1565H33.1858C32.6036 26.1565 32.1311 25.684 32.1311 25.1018C32.1311 24.5197 32.6036 24.0472 33.1858 24.0472H35.9983V21.2347H33.1858C32.6036 21.2347 32.1311 20.7622 32.1311 20.18C32.1311 19.5978 32.6036 19.1253 33.1858 19.1253H35.9983V16.3128H33.1858C32.6036 16.3128 32.1311 15.8403 32.1311 15.2581C32.1311 14.6759 32.6036 14.2034 33.1858 14.2034H35.9983V11.3909H32.8342C32.252 11.3909 31.7795 10.9184 31.7795 10.3362C31.7795 9.75403 32.252 9.28153 32.8341 9.28153ZM29.6701 28.6175C29.6701 29.1997 29.1976 29.6722 28.6154 29.6722H17.4807C17.0539 29.6722 16.6693 29.4155 16.5062 29.0211C16.343 28.6273 16.433 28.1731 16.7347 27.8715L27.8694 16.7368C28.171 16.4351 28.6252 16.3451 29.019 16.5083C29.4134 16.6714 29.6701 17.056 29.6701 17.4828V28.6175Z" fill="#A5ACCB"/>
        <path d="M3.25485 20.4199L7.72954 24.8946L4.78345 27.84C4.37071 28.2527 3.70275 28.2506 3.29212 27.84L0.308761 24.8566C-0.104676 24.4432 -0.101161 23.7752 0.308761 23.3653L3.25485 20.4199Z" fill="#A5ACCB"/>
        <path d="M24.5066 7.82664C24.6051 7.82664 24.7049 7.82383 24.8055 7.8182L9.22078 23.403L4.74609 18.9283L20.1255 3.54883C20.1487 4.74344 20.5748 5.80094 21.3623 6.58914C22.1737 7.39977 23.2691 7.82664 24.5066 7.82664Z" fill="#A5ACCB"/>
        <path d="M28.0478 1.50675L26.245 5.30644C24.9562 5.89425 23.6195 5.86331 22.8538 5.09761C22.1598 4.40362 22.0698 3.23995 22.4973 2.06784L26.6423 0.101904C27.0452 -0.0893465 27.5254 -0.00637769 27.8404 0.308622C28.1554 0.624325 28.2384 1.10386 28.0478 1.50675Z" fill="#A5ACCB"/>
    </g>
    <defs>
        <clipPath id="clip0">
            <rect width="36" height="36" fill="white"/>
        </clipPath>
    </defs>
</svg>
