<svg width="15" height="12" viewBox="0 0 15 12" fill="none" xmlns="http://www.w3.org/2000/svg">
<path d="M5.13681 11.09L0.497814 6.452C0.364142 6.31813 0.289062 6.13668 0.289062 5.9475C0.289062 5.75832 0.364142 5.57687 0.497814 5.443L1.50681 4.433C1.64068 4.29933 1.82213 4.22425 2.01131 4.22425C2.2005 4.22425 2.38194 4.29933 2.51581 4.433L5.64081 7.558L12.3338 0.865002C12.4677 0.73133 12.6491 0.65625 12.8383 0.65625C13.0275 0.65625 13.2089 0.73133 13.3428 0.865002L14.3528 1.879C14.4865 2.01287 14.5616 2.19432 14.5616 2.3835C14.5616 2.57268 14.4865 2.75413 14.3528 2.888L6.14581 11.09C6.01194 11.2237 5.8305 11.2988 5.64131 11.2988C5.45213 11.2988 5.27068 11.2237 5.13681 11.09Z" fill="#FFFFFF"/>
</svg>
