<svg width="36" height="36" viewBox="0 0 36 36" fill="none" xmlns="http://www.w3.org/2000/svg">
    <g clip-path="url(#clip0)">
        <path d="M10.617 29.6015C10.617 27.2748 8.72503 25.3828 6.39835 25.3828C4.07167 25.3828 2.17966 27.2748 2.17966 29.6015V31.7108C2.17966 32.8737 1.16281 33.8905 0 33.8905V35.9998H4.289C7.7785 35.9998 10.617 33.091 10.617 29.6015Z" fill="#A5ACCB"/>
        <path d="M17.6533 8.83112C17.0904 8.9825 16.756 9.55892 16.9076 10.1227C17.053 10.6651 17.6096 11.0218 18.1992 10.8683C18.7659 10.7159 19.0949 10.1367 18.9449 9.57678C18.7926 9.01098 18.21 8.681 17.6533 8.83112Z" fill="#A5ACCB"/>
        <path d="M11.6864 16.8336C12.2461 16.982 12.8252 16.6563 12.978 16.0879C13.1303 15.5196 12.7913 14.9463 12.2333 14.7963H12.2322C11.9331 14.7156 11.8522 14.7763 11.6406 14.8454C11.6526 15.481 11.6609 16.1405 11.6654 16.8232C11.6731 16.8255 11.6785 16.8315 11.6864 16.8336Z" fill="#A5ACCB"/>
        <path d="M23.3137 25.8748C23.1611 25.3077 22.5791 24.9799 22.0221 25.1302C21.4496 25.2841 21.1276 25.8684 21.2765 26.4217C21.4269 26.983 21.9995 27.3147 22.568 27.1674C23.1309 27.016 23.4654 26.4396 23.3137 25.8758V25.8748Z" fill="#A5ACCB"/>
        <path d="M26.8201 12.78C27.2311 12.368 27.2311 11.6985 26.8201 11.2875C26.4089 10.8764 25.7406 10.8747 25.3276 11.2875C24.9167 11.6985 24.9167 12.369 25.3287 12.78C25.7386 13.1899 26.4081 13.1899 26.8201 12.78Z" fill="#A5ACCB"/>
        <path d="M20.1702 2.12251C16.7056 2.24738 13.5252 3.61698 10.9902 5.35579C11.2744 7.28992 11.4751 9.69731 11.582 12.6747C11.9768 12.6275 12.3807 12.6525 12.7762 12.7589C14.4664 13.2108 15.4682 14.9434 15.0143 16.6335C14.6317 18.0631 13.3403 18.9798 11.9636 18.9798C11.8622 18.9798 11.7613 18.9494 11.66 18.9396C11.6472 20.6265 11.609 22.2956 11.5362 23.8895C12.6165 24.3383 13.4608 24.9361 14.0121 25.7106C15.1286 27.2792 14.8309 29.1187 14.7135 29.646C14.3224 31.3977 15.3552 33.1809 17.1246 33.5217C18.1247 33.7133 19.13 33.8081 20.128 33.8081C28.8023 33.8081 36.0695 26.7621 35.9989 17.8716C35.925 8.85463 28.122 1.82291 20.1702 2.12251ZM23.8359 9.79462C25.0718 8.56073 27.0781 8.56073 28.312 9.79462C29.5459 11.0285 29.5459 13.0359 28.312 14.2697V14.2708C27.0783 15.5025 25.0708 15.5027 23.8369 14.2708C22.604 13.0358 22.604 11.0285 23.8359 9.79462ZM14.869 10.6659C14.4201 8.99856 15.3992 7.2485 17.1061 6.79225C18.7838 6.34219 20.5276 7.34328 20.9807 9.02928C21.4337 10.716 20.4342 12.4514 18.7437 12.9039C17.0576 13.3558 15.3221 12.3605 14.869 10.6659ZM23.1108 29.2041C21.425 29.6557 19.6882 28.6517 19.2361 26.9671C18.7831 25.2804 19.7826 23.545 21.4731 23.0924C23.1707 22.6408 24.8968 23.6437 25.3478 25.3305C25.8021 27.0198 24.7976 28.7531 23.1108 29.2041ZM31.3143 21.0005C30.8625 22.6907 29.1258 23.691 27.4396 23.2376C25.754 22.7863 24.7477 21.0562 25.2026 19.3629C25.6591 17.6573 27.4062 16.6781 29.0772 17.1259C30.7633 17.578 31.7665 19.3166 31.3143 21.0005Z" fill="#A5ACCB"/>
        <path d="M28.5312 19.1652C27.9787 19.0162 27.3937 19.3381 27.2396 19.9109C27.0873 20.4791 27.4263 21.0524 27.9843 21.2024C28.5618 21.3516 29.1273 21.0131 29.2769 20.4568C29.4272 19.8955 29.0925 19.3156 28.5312 19.1652Z" fill="#A5ACCB"/>
        <path d="M9.54968 19.0544C9.55263 18.7015 9.56241 18.3542 9.56241 17.9998C9.56241 9.82091 9.01341 0 6.39839 0C3.78337 0 3.23438 9.82091 3.23438 17.9998C3.23438 18.3542 3.24415 18.7015 3.2471 19.0544H9.54968Z" fill="#A5ACCB"/>
        <path d="M6.39745 23.2734C7.49642 23.2734 8.51531 23.5801 9.41678 24.0748C9.46234 23.1283 9.49714 22.1533 9.52147 21.1641H3.27344C3.29777 22.1533 3.3325 23.1283 3.37813 24.0748C4.2796 23.58 5.29848 23.2734 6.39745 23.2734Z" fill="#A5ACCB"/>
    </g>
    <defs>
        <clipPath id="clip0">
            <rect width="36" height="36" fill="white"/>
        </clipPath>
    </defs>
</svg>
