<svg width="36" height="36" viewBox="0 0 36 36" fill="none" xmlns="http://www.w3.org/2000/svg">
    <path d="M26.4375 8.57812H26.171C25.5052 5.99836 23.6398 3.86578 21.1641 2.86383V1.05469C21.1641 0.4725 20.6916 0 20.1094 0H15.8906C15.3084 0 14.8359 0.4725 14.8359 1.05469V2.86383C12.3202 3.88195 10.4344 6.06727 9.79734 8.70398C8.44523 9.09281 7.45312 10.3409 7.45312 11.8167V13.8516C7.45312 14.4338 7.92563 14.9062 8.50781 14.9062H27.4922C28.0744 14.9062 28.5469 14.4338 28.5469 13.8516V10.6875C28.5469 9.52453 27.6005 8.57812 26.4375 8.57812ZM20.8554 10.3788L18.746 12.4882C17.7595 13.474 16.2668 11.9841 17.254 10.9962L18.3291 9.9218L15.4188 8.46703C14.7762 8.145 14.6363 7.28648 15.1446 6.77742L17.254 4.66805C18.2405 3.68227 19.7332 5.17219 18.746 6.16008L17.6709 7.23445L20.5812 8.68922C21.2238 9.01125 21.3637 9.86977 20.8554 10.3788Z" fill="#A5ACCB"/>
    <path d="M26.4375 17.0156C26.4375 21.6682 22.6526 25.4531 18 25.4531C13.3474 25.4531 9.5625 21.6682 9.5625 17.0156H26.4375Z" fill="#A5ACCB"/>
    <path d="M3.23438 34.9453C3.23438 35.5275 3.70688 36 4.28906 36H9.5625V30.7266C9.5625 30.1444 10.035 29.6719 10.6172 29.6719H11.6719V25.5115C6.93211 26.0374 3.23438 30.0677 3.23438 34.9453ZM11.6719 31.7812V36H24.3281V31.7812H11.6719ZM13.7812 25.4531V29.6719H22.2188V25.4531H13.7812ZM24.3281 25.5115V29.6719H25.3828C25.965 29.6719 26.4375 30.1444 26.4375 30.7266V36H31.7109C32.2931 36 32.7656 35.5275 32.7656 34.9453C32.7656 30.0677 29.0679 26.0374 24.3281 25.5115Z" fill="#A5ACCB"/>
</svg>
