<svg width="27" height="36" viewBox="0 0 27 36" fill="none" xmlns="http://www.w3.org/2000/svg">
    <path d="M16.6308 26.6357V17.9749C17.945 16.9902 18.7402 15.435 18.7402 13.7819C18.7402 11.2355 16.9255 9.10524 14.5215 8.61523V13.7819H12.4121V8.61523C10.008 9.10524 8.19336 11.2355 8.19336 13.7819C8.19336 15.435 8.98852 16.9902 10.3027 17.9749V26.6357C8.98852 27.6131 8.19336 29.1694 8.19336 30.8338C8.19336 33.3803 10.008 35.5105 12.4121 36.0005V30.8338H14.5215V36.0005C16.9255 35.5105 18.7402 33.3803 18.7402 30.8338C18.7402 29.1694 17.945 27.6131 16.6308 26.6357Z" fill="#A5ACCB"/>
    <path d="M25.0683 13.7812C25.0683 12.8635 24.9396 11.9365 24.6779 10.9673L26.9315 9.67979L23.7674 4.1726L21.5066 5.48793C20.1223 4.11811 18.4621 3.13964 16.6308 2.61744V0H10.3027V2.61842C8.48273 3.13754 6.81626 4.10981 5.41143 5.47344L3.16404 4.17569L0 9.68288L2.2381 10.9508C1.9899 11.8962 1.86524 12.8448 1.86524 13.7811C1.86524 14.6988 1.99398 15.6257 2.25561 16.595L0.00210928 17.8825L3.16615 23.3897L5.4269 22.0744C6.25574 22.8953 7.18828 23.5673 8.19339 24.0928V18.9217C6.85754 17.5559 6.08403 15.7031 6.08403 13.7812C6.08403 9.71073 9.39637 6.3984 13.4668 6.3984C17.5372 6.3984 20.8496 9.71073 20.8496 13.7812C20.8496 15.7031 20.0761 17.556 18.7402 18.9217V24.0928C19.7453 23.5673 20.6778 22.8953 21.5067 22.0744L23.7674 23.3897L26.9315 17.8825L24.6779 16.595C24.9396 15.6258 25.0683 14.6989 25.0683 13.7812Z" fill="#A5ACCB"/>
</svg>
