<svg width="17" height="18" viewBox="0 0 17 18" fill="none" xmlns="http://www.w3.org/2000/svg">
<path fill-rule="evenodd" clip-rule="evenodd" d="M7.46165 3.58084L15.101 10.9171C15.6054 10.3168 16.0534 9.67476 16.4396 8.99839C16.4205 8.96457 16.3971 8.92376 16.3694 8.87658C16.2796 8.72334 16.1449 8.50325 15.9667 8.23862C15.6102 7.70886 15.0814 7.00315 14.3928 6.2984C13.0108 4.884 11.016 3.50407 8.49984 3.50407L8.49922 3.50407C8.15154 3.50329 7.8046 3.529 7.46165 3.58084ZM16.7373 9.00001L16.9723 8.8873C17.0104 8.96043 17.0091 9.04674 16.969 9.11884C16.5058 9.95012 15.9534 10.7327 15.3207 11.454C15.2734 11.508 15.2045 11.5405 15.131 11.5435C15.0574 11.5465 14.986 11.5198 14.934 11.4698L6.74164 3.60256C6.67427 3.53786 6.64872 3.44322 6.67487 3.35527C6.70103 3.26733 6.77479 3.19988 6.86761 3.17904C7.40272 3.05888 7.95058 2.9988 8.50015 3.00002C11.226 3.00013 13.3499 4.49413 14.776 5.95366C15.4915 6.6859 16.0392 7.41718 16.4081 7.96516C16.5927 8.2394 16.7329 8.46837 16.8273 8.62947C16.8746 8.71004 16.9104 8.77368 16.9346 8.81758C16.9467 8.83954 16.9559 8.85655 16.9622 8.86829L16.9694 8.88189L16.9714 8.88564L16.972 8.88673L16.9723 8.8873C16.9723 8.88742 16.9723 8.8873 16.7373 9.00001ZM3.89228 4.53189C3.99686 4.45527 4.14439 4.46471 4.23744 4.55398L7.09214 7.29287C7.09615 7.29649 7.10007 7.30025 7.10389 7.30416L13.134 13.0896C13.1876 13.141 13.2154 13.2122 13.2103 13.2847C13.2052 13.3573 13.1678 13.4242 13.1075 13.4683C11.7828 14.4371 10.1698 14.9738 8.5044 15L8.5001 15C5.77367 15 3.64968 13.5059 2.2236 12.0464C1.50817 11.3141 0.960548 10.5828 0.591757 10.0348C0.407198 9.7606 0.266996 9.53163 0.17257 9.37053C0.125347 9.28996 0.0895436 9.22631 0.065338 9.18241C0.0532343 9.16046 0.0440278 9.14344 0.0377408 9.1317L0.0305018 9.1181L0.0285292 9.11436L0.0277718 9.11291C0.0277087 9.11279 0.027657 9.11269 0.262615 9.00001L0.0277718 9.11291C-0.0103835 9.03967 -0.00919288 8.95299 0.0311576 8.88084C0.98034 7.18367 2.29682 5.70086 3.89228 4.53189ZM0.560491 9.00186C0.579545 9.03563 0.602889 9.07638 0.63048 9.12346C0.720296 9.2767 0.855 9.49678 1.0331 9.76142C1.38962 10.2912 1.91831 10.9969 2.60687 11.7016C3.98839 13.1156 5.9824 14.4952 8.49795 14.4959C9.94987 14.4727 11.359 14.0335 12.5456 13.2379L10.0842 10.8764C9.89882 11.0314 9.69027 11.1598 9.46507 11.257C9.1568 11.39 8.82369 11.4619 8.48574 11.4684C8.14779 11.4748 7.81196 11.4157 7.49841 11.2946C7.18486 11.1734 6.90005 10.9928 6.66107 10.7634C6.4221 10.534 6.23388 10.2607 6.10772 9.95983C5.98157 9.65895 5.92007 9.33672 5.92691 9.01247C5.93376 8.68822 6.00882 8.36864 6.14758 8.07291C6.24882 7.85714 6.38245 7.65731 6.54381 7.47962L4.02986 5.06765C2.61169 6.14368 1.43197 7.48129 0.560491 9.00186ZM6.91641 7.8371C6.79931 7.97089 6.7017 8.11981 6.62662 8.27982C6.51691 8.51364 6.45757 8.76631 6.45216 9.02268C6.44674 9.27904 6.49537 9.53381 6.59511 9.7717C6.69486 10.0096 6.84367 10.2257 7.03261 10.407C7.22156 10.5884 7.44674 10.7312 7.69465 10.827C7.94255 10.9228 8.20807 10.9695 8.47527 10.9644C8.74247 10.9593 9.00584 10.9025 9.24957 10.7973C9.41658 10.7252 9.57202 10.6314 9.71164 10.5189L6.91641 7.8371Z" fill="#5E6891"/>
<path fill-rule="evenodd" clip-rule="evenodd" d="M0.0777998 0.0823762C0.181533 -0.0274587 0.349717 -0.0274587 0.45345 0.0823762L16.9222 17.5199C17.0259 17.6297 17.0259 17.8078 16.9222 17.9176C16.8185 18.0275 16.6503 18.0275 16.5465 17.9176L0.0777998 0.480124C-0.0259333 0.370289 -0.0259333 0.192211 0.0777998 0.0823762Z" fill="#5E6891"/>
</svg>
