<svg width="36" height="36" viewBox="0 0 36 36" fill="none" xmlns="http://www.w3.org/2000/svg">
    <path d="M28.0307 18.9375C28.2332 20.8603 27.972 22.8499 27.1719 24.7293V24.73L29.9495 28.3173C30.1981 28.6384 30.6642 28.6825 30.972 28.4176C33.4661 26.2713 35.1165 23.173 35.361 19.6867C35.3895 19.2808 35.0629 18.9376 34.6561 18.9376H28.0307V18.9375Z" fill="#A5ACCB"/>
    <path d="M21.0547 0.706502V9.47823C23.4078 10.4966 25.3613 12.27 26.6085 14.4903H34.6723C35.0711 14.4903 35.3938 14.1603 35.3784 13.7619C35.0913 6.30507 29.146 0.373938 21.7909 0.000907625C21.3896 -0.0194318 21.0547 0.304728 21.0547 0.706502Z" fill="#A5ACCB"/>
    <path d="M16.563 31.8347C10.1429 31.901 4.83736 26.6958 4.78545 20.2755C4.73312 13.805 9.98203 8.52398 16.4407 8.52398V5.08387C16.4407 4.68132 16.1046 4.35927 15.7025 4.37771C7.30902 4.76331 0.621164 11.6904 0.621094 20.1797C0.621094 28.9334 7.79102 36.0552 16.5445 35.9989C19.8457 35.9777 22.9058 34.9458 25.432 33.1973C25.7644 32.9673 25.8343 32.5044 25.5868 32.1847L23.4803 29.4638C21.553 30.9281 19.1586 31.8078 16.563 31.8347Z" fill="#A5ACCB"/>
    <path d="M6.90234 20.1795C6.90234 25.4381 11.1807 29.7164 16.4393 29.7164C21.6973 29.7164 25.9762 25.4389 25.9762 20.1795C25.9762 14.9211 21.6973 10.6426 16.4393 10.6426C11.1807 10.6426 6.90234 14.9209 6.90234 20.1795ZM17.4986 13.8439V14.8545C18.5847 14.8545 19.546 15.3165 20.224 16.0396C20.6237 16.4661 20.6018 17.1371 20.1752 17.5368C19.7513 17.934 19.0836 17.9188 18.678 17.4881C18.3743 17.1646 17.9605 16.9768 17.5417 16.9732C16.6845 16.9732 16.105 16.9732 15.2514 16.9732C14.6577 16.9732 14.1779 17.4542 14.1779 18.0467C14.1779 18.6385 14.6596 19.1202 15.2521 19.1202H17.6272C19.3871 19.1202 20.8193 20.5524 20.8193 22.3123C20.8193 23.9568 19.5544 25.5052 17.4986 25.5052V26.5151C17.4986 27.0999 17.0247 27.5744 16.4393 27.5744C15.8545 27.5744 15.3799 27.0999 15.3799 26.5151V25.5052C14.6337 25.5052 13.8985 25.4244 13.0374 24.8272C12.5571 24.4939 12.4378 23.8335 12.7711 23.3533C13.1045 22.8724 13.7648 22.753 14.245 23.0863C14.4993 23.2643 14.815 23.3824 15.1292 23.3865H17.6272C18.2171 23.3865 18.7006 22.9102 18.7006 22.3123C18.7006 21.7205 18.219 21.2389 17.6272 21.2389C16.5761 21.2389 16.3595 21.2389 15.2521 21.2389C13.4915 21.2389 12.0592 19.8066 12.0592 18.0467C12.0592 16.397 13.3287 14.8545 15.3799 14.8545V13.8439C15.3799 13.2592 15.8545 12.7846 16.4393 12.7846C17.0247 12.7846 17.4986 13.2592 17.4986 13.8439Z" fill="#A5ACCB"/>
</svg>
