<svg width="20" height="15" viewBox="0 0 20 15" fill="none" xmlns="http://www.w3.org/2000/svg">
    <path d="M6.79313 14.6208L0.292523 8.12156C0.105209 7.93397 0 7.67971 0 7.41461C0 7.14951 0.105209 6.89525 0.292523 6.70766L1.70643 5.29235C1.89402 5.10503 2.14829 4.99982 2.41338 4.99982C2.67848 4.99982 2.93275 5.10503 3.12034 5.29235L7.49939 9.6714L16.8783 0.292523C17.0659 0.105209 17.3201 0 17.5852 0C17.8503 0 18.1046 0.105209 18.2922 0.292523L19.7075 1.71344C19.8948 1.90103 20 2.15529 20 2.42039C20 2.68549 19.8948 2.93975 19.7075 3.12734L8.20704 14.6208C8.01945 14.8081 7.76519 14.9133 7.50009 14.9133C7.23499 14.9133 6.98073 14.8081 6.79313 14.6208Z" fill="#38D982"/>
</svg>
