<svg width="32" height="32" viewBox="0 0 32 32" fill="none" xmlns="http://www.w3.org/2000/svg">
<rect width="32" height="32" fill="#E5E5E5"/>
<g id="Calculator - 2 inputs &#226;&#128;&#147; 1" clip-path="url(#clip0)">
<g id="Calculator - 2 inputs &#226;&#128;&#147; 1_2">
<path id="Vector" d="M1010 -751H-590V385H1010V-751Z" fill="white"/>
<g id="Group 15871">
<g id="Background@3x">
<path id="Rectangle 867" d="M1010 -751H-590V2713H1010V-751Z" fill="#131833"/>
<g id="Background" opacity="0.432">
<path id="Path 8876" opacity="0.432" d="M412.402 -1322.34L1067.31 -937.59L-970.706 2959.45L-1625.61 2574.7L412.402 -1322.34Z" fill="url(#paint0_linear)"/>
<path id="Path 8877" opacity="0.432" d="M1247.29 -1299.72L1902.19 -914.976L-390.346 3468.76L-1045.25 3084.02L1247.29 -1299.72Z" fill="url(#paint1_linear)"/>
<path id="Path 8878" opacity="0.432" d="M645.688 -3402.54L1300.59 -3017.8L-991.946 1365.94L-1646.85 981.196L645.688 -3402.54Z" fill="url(#paint2_linear)"/>
</g>
</g>
<g id="Group 15870">
<g id="Charts">
<g id="Chart">
<path id="Rectangle 981" d="M-187 -83H329C332.978 -83 336.794 -81.4196 339.607 -78.6066C342.42 -75.7936 344 -71.9782 344 -68V250C344 253.978 342.42 257.794 339.607 260.607C336.794 263.42 332.978 265 329 265H-175C-178.978 265 -182.794 263.42 -185.607 260.607C-188.42 257.794 -190 253.978 -190 250V-80C-190 -80.7956 -189.684 -81.5587 -189.121 -82.1213C-188.559 -82.6839 -187.796 -83 -187 -83V-83Z" fill="#1F2748"/>
<path id="Additional text" d="M-34.3672 0V-10.5029H-31.3789C-30.4707 -10.5029 -29.7505 -10.2808 -29.2183 -9.83643C-28.686 -9.39209 -28.4199 -8.81348 -28.4199 -8.10059C-28.4199 -7.50488 -28.5811 -6.9873 -28.9033 -6.54785C-29.2256 -6.1084 -29.6699 -5.7959 -30.2363 -5.61035V-5.58105C-29.5283 -5.49805 -28.9619 -5.22949 -28.5371 -4.77539C-28.1123 -4.32617 -27.8999 -3.74023 -27.8999 -3.01758C-27.8999 -2.11914 -28.2222 -1.3916 -28.8667 -0.834961C-29.5112 -0.27832 -30.3242 0 -31.3057 0H-34.3672ZM-33.1367 -9.38965V-5.99854H-31.877C-31.2031 -5.99854 -30.6733 -6.15967 -30.2876 -6.48193C-29.9019 -6.80908 -29.709 -7.26807 -29.709 -7.85889C-29.709 -8.87939 -30.3804 -9.38965 -31.7231 -9.38965H-33.1367ZM-33.1367 -4.89258V-1.11328H-31.4668C-30.7441 -1.11328 -30.1851 -1.28418 -29.7896 -1.62598C-29.3892 -1.96777 -29.189 -2.43652 -29.189 -3.03223C-29.189 -4.27246 -30.0337 -4.89258 -31.7231 -4.89258H-33.1367ZM-22.0186 -6.28418C-22.2285 -6.44531 -22.5312 -6.52588 -22.9268 -6.52588C-23.4395 -6.52588 -23.8691 -6.28418 -24.2158 -5.80078C-24.5576 -5.31738 -24.7285 -4.6582 -24.7285 -3.82324V0H-25.9297V-7.5H-24.7285V-5.95459H-24.6992C-24.5283 -6.48193 -24.2671 -6.89209 -23.9155 -7.18506C-23.564 -7.48291 -23.1709 -7.63184 -22.7363 -7.63184C-22.4238 -7.63184 -22.1846 -7.59766 -22.0186 -7.5293V-6.28418ZM-14.687 -3.44971H-19.9824C-19.9629 -2.61475 -19.7383 -1.97021 -19.3086 -1.51611C-18.8789 -1.06201 -18.2881 -0.834961 -17.5361 -0.834961C-16.6914 -0.834961 -15.915 -1.11328 -15.207 -1.66992V-0.541992C-15.8662 -0.0634766 -16.7378 0.175781 -17.8218 0.175781C-18.8813 0.175781 -19.7139 -0.163574 -20.3193 -0.842285C-20.9248 -1.52588 -21.2275 -2.48535 -21.2275 -3.7207C-21.2275 -4.8877 -20.8979 -5.8374 -20.2388 -6.56982C-19.5747 -7.30713 -18.752 -7.67578 -17.7705 -7.67578C-16.7891 -7.67578 -16.0298 -7.3584 -15.4927 -6.72363C-14.9556 -6.08887 -14.687 -5.20752 -14.687 -4.07959V-3.44971ZM-15.9175 -4.46777C-15.9224 -5.16113 -16.0908 -5.70068 -16.4229 -6.08643C-16.75 -6.47217 -17.2065 -6.66504 -17.7925 -6.66504C-18.3589 -6.66504 -18.8398 -6.4624 -19.2354 -6.05713C-19.6309 -5.65186 -19.875 -5.12207 -19.9678 -4.46777H-15.9175ZM-7.49463 0H-8.6958V-1.17188H-8.7251C-9.24756 -0.273438 -10.0166 0.175781 -11.0322 0.175781C-11.7793 0.175781 -12.3652 -0.0219727 -12.79 -0.41748C-13.21 -0.812988 -13.4199 -1.33789 -13.4199 -1.99219C-13.4199 -3.39355 -12.5947 -4.20898 -10.9443 -4.43848L-8.6958 -4.75342C-8.6958 -6.02783 -9.21094 -6.66504 -10.2412 -6.66504C-11.1445 -6.66504 -11.96 -6.35742 -12.6875 -5.74219V-6.97266C-11.9502 -7.44141 -11.1006 -7.67578 -10.1387 -7.67578C-8.37598 -7.67578 -7.49463 -6.74316 -7.49463 -4.87793V0ZM-8.6958 -3.79395L-10.5049 -3.54492C-11.0615 -3.4668 -11.4814 -3.32764 -11.7646 -3.12744C-12.0479 -2.93213 -12.1895 -2.58301 -12.1895 -2.08008C-12.1895 -1.71387 -12.0601 -1.41357 -11.8013 -1.1792C-11.5376 -0.949707 -11.1885 -0.834961 -10.7539 -0.834961C-10.1582 -0.834961 -9.66748 -1.04248 -9.28174 -1.45752C-8.89111 -1.87744 -8.6958 -2.40723 -8.6958 -3.04688V-3.79395ZM0.994141 0H-0.69043L-4.00098 -3.60352H-4.03027V0H-5.23145V-11.1035H-4.03027V-4.06494H-4.00098L-0.851562 -7.5H0.723145L-2.75586 -3.88184L0.994141 0ZM8.62598 0H7.4248V-1.27441H7.39551C6.83887 -0.307617 5.97949 0.175781 4.81738 0.175781C3.875 0.175781 3.12061 -0.158691 2.5542 -0.827637C1.99268 -1.50146 1.71191 -2.41699 1.71191 -3.57422C1.71191 -4.81445 2.02441 -5.80811 2.64941 -6.55518C3.27441 -7.30225 4.10693 -7.67578 5.14697 -7.67578C6.17725 -7.67578 6.92676 -7.27051 7.39551 -6.45996H7.4248V-11.1035H8.62598V0ZM7.4248 -3.39111V-4.49707C7.4248 -5.10254 7.22461 -5.61523 6.82422 -6.03516C6.42383 -6.45508 5.91602 -6.66504 5.30078 -6.66504C4.56836 -6.66504 3.99219 -6.39648 3.57227 -5.85938C3.15234 -5.32227 2.94238 -4.58008 2.94238 -3.63281C2.94238 -2.76855 3.14258 -2.08496 3.54297 -1.58203C3.94824 -1.08398 4.49023 -0.834961 5.16895 -0.834961C5.83789 -0.834961 6.37988 -1.07666 6.79492 -1.56006C7.21484 -2.04346 7.4248 -2.65381 7.4248 -3.39111ZM14.1924 0.175781C13.084 0.175781 12.1978 -0.17334 11.5337 -0.871582C10.8745 -1.57471 10.5449 -2.50488 10.5449 -3.66211C10.5449 -4.92188 10.8892 -5.90576 11.5776 -6.61377C12.2661 -7.32178 13.1963 -7.67578 14.3682 -7.67578C15.4863 -7.67578 16.3579 -7.33154 16.9829 -6.64307C17.6128 -5.95459 17.9277 -5 17.9277 -3.7793C17.9277 -2.58301 17.5884 -1.62354 16.9097 -0.900879C16.2358 -0.183105 15.3301 0.175781 14.1924 0.175781ZM14.2803 -6.66504C13.5088 -6.66504 12.8984 -6.40137 12.4492 -5.87402C12 -5.35156 11.7754 -4.62891 11.7754 -3.70605C11.7754 -2.81738 12.0024 -2.1167 12.4565 -1.604C12.9106 -1.09131 13.5186 -0.834961 14.2803 -0.834961C15.0566 -0.834961 15.6523 -1.08643 16.0674 -1.58936C16.4873 -2.09229 16.6973 -2.80762 16.6973 -3.73535C16.6973 -4.67285 16.4873 -5.39551 16.0674 -5.90332C15.6523 -6.41113 15.0566 -6.66504 14.2803 -6.66504ZM29.2949 -7.5L27.0464 0H25.8013L24.2559 -5.36865C24.1973 -5.57373 24.1582 -5.80566 24.1387 -6.06445H24.1094C24.0947 -5.88867 24.0435 -5.66162 23.9556 -5.3833L22.2783 0H21.0771L18.8066 -7.5H20.0664L21.6191 -1.86035C21.668 -1.68945 21.7021 -1.46484 21.7217 -1.18652H21.7803C21.7949 -1.40137 21.8389 -1.63086 21.9121 -1.875L23.6406 -7.5H24.7393L26.292 -1.8457C26.3408 -1.66504 26.3774 -1.44043 26.4019 -1.17188H26.4604C26.4702 -1.3623 26.5117 -1.58691 26.585 -1.8457L28.1084 -7.5H29.2949ZM36.9121 0H35.7109V-4.27734C35.7109 -5.86914 35.1299 -6.66504 33.9678 -6.66504C33.3672 -6.66504 32.8691 -6.43799 32.4736 -5.98389C32.083 -5.53467 31.8877 -4.96582 31.8877 -4.27734V0H30.6865V-7.5H31.8877V-6.25488H31.917C32.4834 -7.20215 33.3037 -7.67578 34.3779 -7.67578C35.1982 -7.67578 35.8257 -7.40967 36.2603 -6.87744C36.6948 -6.3501 36.9121 -5.58594 36.9121 -4.58496V0ZM44.5293 -1.08398H44.5V0H43.2988V-11.1035H44.5V-6.18164H44.5293C45.1201 -7.17773 45.9844 -7.67578 47.1221 -7.67578C48.084 -7.67578 48.8359 -7.33887 49.3779 -6.66504C49.9248 -5.99609 50.1982 -5.09766 50.1982 -3.96973C50.1982 -2.71484 49.8931 -1.70898 49.2827 -0.952148C48.6724 -0.200195 47.8374 0.175781 46.7778 0.175781C45.7866 0.175781 45.0371 -0.244141 44.5293 -1.08398ZM44.5 -4.10889V-3.06152C44.5 -2.44141 44.7002 -1.91406 45.1006 -1.47949C45.5059 -1.0498 46.0186 -0.834961 46.6387 -0.834961C47.3662 -0.834961 47.9351 -1.11328 48.3452 -1.66992C48.7603 -2.22656 48.9678 -3.00049 48.9678 -3.9917C48.9678 -4.82666 48.7749 -5.48096 48.3892 -5.95459C48.0034 -6.42822 47.481 -6.66504 46.8218 -6.66504C46.1235 -6.66504 45.562 -6.4209 45.1372 -5.93262C44.7124 -5.44922 44.5 -4.84131 44.5 -4.10889ZM58.0864 -7.5L54.6367 1.20117C54.0215 2.75391 53.1572 3.53027 52.0439 3.53027C51.7314 3.53027 51.4702 3.49854 51.2603 3.43506V2.3584C51.519 2.44629 51.7559 2.49023 51.9707 2.49023C52.5762 2.49023 53.0303 2.12891 53.333 1.40625L53.9336 -0.0146484L51.0039 -7.5H52.3369L54.3657 -1.72852C54.3901 -1.65527 54.4414 -1.46484 54.5195 -1.15723H54.5635C54.5879 -1.27441 54.6367 -1.45996 54.71 -1.71387L56.8413 -7.5H58.0864ZM69.9004 -0.600586C69.9004 2.15332 68.582 3.53027 65.9453 3.53027C65.0176 3.53027 64.207 3.35449 63.5137 3.00293V1.80176C64.3584 2.27051 65.1641 2.50488 65.9307 2.50488C67.7764 2.50488 68.6992 1.52344 68.6992 -0.439453V-1.25977H68.6699C68.0986 -0.302734 67.2393 0.175781 66.0918 0.175781C65.1592 0.175781 64.4072 -0.15625 63.8359 -0.820312C63.2695 -1.48926 62.9863 -2.38525 62.9863 -3.5083C62.9863 -4.78271 63.2915 -5.7959 63.9019 -6.54785C64.5171 -7.2998 65.3569 -7.67578 66.4214 -7.67578C67.4321 -7.67578 68.1816 -7.27051 68.6699 -6.45996H68.6992V-7.5H69.9004V-0.600586ZM68.6992 -3.39111V-4.49707C68.6992 -5.09277 68.4966 -5.60303 68.0913 -6.02783C67.6909 -6.45264 67.1904 -6.66504 66.5898 -6.66504C65.8477 -6.66504 65.2666 -6.39404 64.8467 -5.85205C64.4268 -5.31494 64.2168 -4.56055 64.2168 -3.58887C64.2168 -2.75391 64.417 -2.08496 64.8174 -1.58203C65.2227 -1.08398 65.7573 -0.834961 66.4214 -0.834961C67.0952 -0.834961 67.6421 -1.07422 68.062 -1.55273C68.4868 -2.03125 68.6992 -2.64404 68.6992 -3.39111ZM78.3599 -3.44971H73.0645C73.084 -2.61475 73.3086 -1.97021 73.7383 -1.51611C74.168 -1.06201 74.7588 -0.834961 75.5107 -0.834961C76.3555 -0.834961 77.1318 -1.11328 77.8398 -1.66992V-0.541992C77.1807 -0.0634766 76.3091 0.175781 75.2251 0.175781C74.1655 0.175781 73.333 -0.163574 72.7275 -0.842285C72.1221 -1.52588 71.8193 -2.48535 71.8193 -3.7207C71.8193 -4.8877 72.1489 -5.8374 72.8081 -6.56982C73.4722 -7.30713 74.2949 -7.67578 75.2764 -7.67578C76.2578 -7.67578 77.0171 -7.3584 77.5542 -6.72363C78.0913 -6.08887 78.3599 -5.20752 78.3599 -4.07959V-3.44971ZM77.1294 -4.46777C77.1245 -5.16113 76.9561 -5.70068 76.624 -6.08643C76.2969 -6.47217 75.8403 -6.66504 75.2544 -6.66504C74.688 -6.66504 74.207 -6.4624 73.8115 -6.05713C73.416 -5.65186 73.1719 -5.12207 73.0791 -4.46777H77.1294ZM83.3184 0.175781C82.21 0.175781 81.3237 -0.17334 80.6597 -0.871582C80.0005 -1.57471 79.6709 -2.50488 79.6709 -3.66211C79.6709 -4.92188 80.0151 -5.90576 80.7036 -6.61377C81.3921 -7.32178 82.3223 -7.67578 83.4941 -7.67578C84.6123 -7.67578 85.4839 -7.33154 86.1089 -6.64307C86.7388 -5.95459 87.0537 -5 87.0537 -3.7793C87.0537 -2.58301 86.7144 -1.62354 86.0356 -0.900879C85.3618 -0.183105 84.4561 0.175781 83.3184 0.175781ZM83.4062 -6.66504C82.6348 -6.66504 82.0244 -6.40137 81.5752 -5.87402C81.126 -5.35156 80.9014 -4.62891 80.9014 -3.70605C80.9014 -2.81738 81.1284 -2.1167 81.5825 -1.604C82.0366 -1.09131 82.6445 -0.834961 83.4062 -0.834961C84.1826 -0.834961 84.7783 -1.08643 85.1934 -1.58936C85.6133 -2.09229 85.8232 -2.80762 85.8232 -3.73535C85.8232 -4.67285 85.6133 -5.39551 85.1934 -5.90332C84.7783 -6.41113 84.1826 -6.66504 83.4062 -6.66504ZM95.374 -0.600586C95.374 2.15332 94.0557 3.53027 91.4189 3.53027C90.4912 3.53027 89.6807 3.35449 88.9873 3.00293V1.80176C89.832 2.27051 90.6377 2.50488 91.4043 2.50488C93.25 2.50488 94.1729 1.52344 94.1729 -0.439453V-1.25977H94.1436C93.5723 -0.302734 92.7129 0.175781 91.5654 0.175781C90.6328 0.175781 89.8809 -0.15625 89.3096 -0.820312C88.7432 -1.48926 88.46 -2.38525 88.46 -3.5083C88.46 -4.78271 88.7651 -5.7959 89.3755 -6.54785C89.9907 -7.2998 90.8306 -7.67578 91.895 -7.67578C92.9058 -7.67578 93.6553 -7.27051 94.1436 -6.45996H94.1729V-7.5H95.374V-0.600586ZM94.1729 -3.39111V-4.49707C94.1729 -5.09277 93.9702 -5.60303 93.5649 -6.02783C93.1646 -6.45264 92.6641 -6.66504 92.0635 -6.66504C91.3213 -6.66504 90.7402 -6.39404 90.3203 -5.85205C89.9004 -5.31494 89.6904 -4.56055 89.6904 -3.58887C89.6904 -2.75391 89.8906 -2.08496 90.291 -1.58203C90.6963 -1.08398 91.231 -0.834961 91.895 -0.834961C92.5688 -0.834961 93.1157 -1.07422 93.5356 -1.55273C93.9604 -2.03125 94.1729 -2.64404 94.1729 -3.39111ZM101.717 -6.28418C101.507 -6.44531 101.204 -6.52588 100.809 -6.52588C100.296 -6.52588 99.8662 -6.28418 99.5195 -5.80078C99.1777 -5.31738 99.0068 -4.6582 99.0068 -3.82324V0H97.8057V-7.5H99.0068V-5.95459H99.0361C99.207 -6.48193 99.4683 -6.89209 99.8198 -7.18506C100.171 -7.48291 100.564 -7.63184 100.999 -7.63184C101.312 -7.63184 101.551 -7.59766 101.717 -7.5293V-6.28418ZM108.389 0H107.188V-1.17188H107.159C106.636 -0.273438 105.867 0.175781 104.852 0.175781C104.104 0.175781 103.519 -0.0219727 103.094 -0.41748C102.674 -0.812988 102.464 -1.33789 102.464 -1.99219C102.464 -3.39355 103.289 -4.20898 104.939 -4.43848L107.188 -4.75342C107.188 -6.02783 106.673 -6.66504 105.643 -6.66504C104.739 -6.66504 103.924 -6.35742 103.196 -5.74219V-6.97266C103.934 -7.44141 104.783 -7.67578 105.745 -7.67578C107.508 -7.67578 108.389 -6.74316 108.389 -4.87793V0ZM107.188 -3.79395L105.379 -3.54492C104.822 -3.4668 104.402 -3.32764 104.119 -3.12744C103.836 -2.93213 103.694 -2.58301 103.694 -2.08008C103.694 -1.71387 103.824 -1.41357 104.083 -1.1792C104.346 -0.949707 104.695 -0.834961 105.13 -0.834961C105.726 -0.834961 106.216 -1.04248 106.602 -1.45752C106.993 -1.87744 107.188 -2.40723 107.188 -3.04688V-3.79395ZM111.883 -1.08398H111.854V3.44971H110.652V-7.5H111.854V-6.18164H111.883C112.474 -7.17773 113.338 -7.67578 114.476 -7.67578C115.442 -7.67578 116.197 -7.33887 116.739 -6.66504C117.281 -5.99609 117.552 -5.09766 117.552 -3.96973C117.552 -2.71484 117.247 -1.70898 116.636 -0.952148C116.026 -0.200195 115.191 0.175781 114.131 0.175781C113.16 0.175781 112.41 -0.244141 111.883 -1.08398ZM111.854 -4.10889V-3.06152C111.854 -2.44141 112.054 -1.91406 112.454 -1.47949C112.859 -1.0498 113.372 -0.834961 113.992 -0.834961C114.72 -0.834961 115.289 -1.11328 115.699 -1.66992C116.114 -2.22656 116.321 -3.00049 116.321 -3.9917C116.321 -4.82666 116.128 -5.48096 115.743 -5.95459C115.357 -6.42822 114.834 -6.66504 114.175 -6.66504C113.477 -6.66504 112.916 -6.4209 112.491 -5.93262C112.066 -5.44922 111.854 -4.84131 111.854 -4.10889ZM125.696 0H124.495V-4.32129C124.495 -5.88379 123.914 -6.66504 122.752 -6.66504C122.166 -6.66504 121.673 -6.43799 121.272 -5.98389C120.872 -5.53467 120.672 -4.95605 120.672 -4.24805V0H119.471V-11.1035H120.672V-6.25488H120.701C121.277 -7.20215 122.098 -7.67578 123.162 -7.67578C124.852 -7.67578 125.696 -6.65771 125.696 -4.62158V0ZM128.582 -9.4043C128.367 -9.4043 128.184 -9.47754 128.033 -9.62402C127.881 -9.77051 127.806 -9.95605 127.806 -10.1807C127.806 -10.4053 127.881 -10.5908 128.033 -10.7373C128.184 -10.8887 128.367 -10.9644 128.582 -10.9644C128.802 -10.9644 128.987 -10.8887 129.139 -10.7373C129.295 -10.5908 129.373 -10.4053 129.373 -10.1807C129.373 -9.96582 129.295 -9.78271 129.139 -9.63135C128.987 -9.47998 128.802 -9.4043 128.582 -9.4043ZM129.168 0H127.967V-7.5H129.168V0ZM136.712 -0.344238C136.136 0.00244141 135.452 0.175781 134.661 0.175781C133.592 0.175781 132.728 -0.170898 132.068 -0.864258C131.414 -1.5625 131.087 -2.46582 131.087 -3.57422C131.087 -4.80957 131.441 -5.80078 132.149 -6.54785C132.857 -7.2998 133.802 -7.67578 134.983 -7.67578C135.643 -7.67578 136.224 -7.55371 136.727 -7.30957V-6.0791C136.17 -6.46973 135.574 -6.66504 134.939 -6.66504C134.173 -6.66504 133.543 -6.38916 133.05 -5.8374C132.562 -5.29053 132.317 -4.57031 132.317 -3.67676C132.317 -2.79785 132.547 -2.10449 133.006 -1.59668C133.47 -1.08887 134.09 -0.834961 134.866 -0.834961C135.521 -0.834961 136.136 -1.05225 136.712 -1.48682V-0.344238ZM143.897 0H142.696V-1.17188H142.667C142.144 -0.273438 141.375 0.175781 140.359 0.175781C139.612 0.175781 139.026 -0.0219727 138.602 -0.41748C138.182 -0.812988 137.972 -1.33789 137.972 -1.99219C137.972 -3.39355 138.797 -4.20898 140.447 -4.43848L142.696 -4.75342C142.696 -6.02783 142.181 -6.66504 141.15 -6.66504C140.247 -6.66504 139.432 -6.35742 138.704 -5.74219V-6.97266C139.441 -7.44141 140.291 -7.67578 141.253 -7.67578C143.016 -7.67578 143.897 -6.74316 143.897 -4.87793V0ZM142.696 -3.79395L140.887 -3.54492C140.33 -3.4668 139.91 -3.32764 139.627 -3.12744C139.344 -2.93213 139.202 -2.58301 139.202 -2.08008C139.202 -1.71387 139.332 -1.41357 139.59 -1.1792C139.854 -0.949707 140.203 -0.834961 140.638 -0.834961C141.233 -0.834961 141.724 -1.04248 142.11 -1.45752C142.5 -1.87744 142.696 -2.40723 142.696 -3.04688V-3.79395ZM147.361 0H146.16V-11.1035H147.361V0ZM157.82 -6.28418C157.61 -6.44531 157.308 -6.52588 156.912 -6.52588C156.399 -6.52588 155.97 -6.28418 155.623 -5.80078C155.281 -5.31738 155.11 -4.6582 155.11 -3.82324V0H153.909V-7.5H155.11V-5.95459H155.14C155.311 -6.48193 155.572 -6.89209 155.923 -7.18506C156.275 -7.48291 156.668 -7.63184 157.103 -7.63184C157.415 -7.63184 157.654 -7.59766 157.82 -7.5293V-6.28418ZM165.152 -3.44971H159.856C159.876 -2.61475 160.101 -1.97021 160.53 -1.51611C160.96 -1.06201 161.551 -0.834961 162.303 -0.834961C163.147 -0.834961 163.924 -1.11328 164.632 -1.66992V-0.541992C163.973 -0.0634766 163.101 0.175781 162.017 0.175781C160.958 0.175781 160.125 -0.163574 159.52 -0.842285C158.914 -1.52588 158.611 -2.48535 158.611 -3.7207C158.611 -4.8877 158.941 -5.8374 159.6 -6.56982C160.264 -7.30713 161.087 -7.67578 162.068 -7.67578C163.05 -7.67578 163.809 -7.3584 164.346 -6.72363C164.883 -6.08887 165.152 -5.20752 165.152 -4.07959V-3.44971ZM163.921 -4.46777C163.917 -5.16113 163.748 -5.70068 163.416 -6.08643C163.089 -6.47217 162.632 -6.66504 162.046 -6.66504C161.48 -6.66504 160.999 -6.4624 160.604 -6.05713C160.208 -5.65186 159.964 -5.12207 159.871 -4.46777H163.921ZM172.344 0H171.143V-1.17188H171.114C170.591 -0.273438 169.822 0.175781 168.807 0.175781C168.06 0.175781 167.474 -0.0219727 167.049 -0.41748C166.629 -0.812988 166.419 -1.33789 166.419 -1.99219C166.419 -3.39355 167.244 -4.20898 168.895 -4.43848L171.143 -4.75342C171.143 -6.02783 170.628 -6.66504 169.598 -6.66504C168.694 -6.66504 167.879 -6.35742 167.151 -5.74219V-6.97266C167.889 -7.44141 168.738 -7.67578 169.7 -7.67578C171.463 -7.67578 172.344 -6.74316 172.344 -4.87793V0ZM171.143 -3.79395L169.334 -3.54492C168.777 -3.4668 168.357 -3.32764 168.074 -3.12744C167.791 -2.93213 167.649 -2.58301 167.649 -2.08008C167.649 -1.71387 167.779 -1.41357 168.038 -1.1792C168.301 -0.949707 168.65 -0.834961 169.085 -0.834961C169.681 -0.834961 170.171 -1.04248 170.557 -1.45752C170.948 -1.87744 171.143 -2.40723 171.143 -3.04688V-3.79395ZM179.72 -0.344238C179.144 0.00244141 178.46 0.175781 177.669 0.175781C176.6 0.175781 175.735 -0.170898 175.076 -0.864258C174.422 -1.5625 174.095 -2.46582 174.095 -3.57422C174.095 -4.80957 174.449 -5.80078 175.157 -6.54785C175.865 -7.2998 176.81 -7.67578 177.991 -7.67578C178.65 -7.67578 179.231 -7.55371 179.734 -7.30957V-6.0791C179.178 -6.46973 178.582 -6.66504 177.947 -6.66504C177.181 -6.66504 176.551 -6.38916 176.058 -5.8374C175.569 -5.29053 175.325 -4.57031 175.325 -3.67676C175.325 -2.79785 175.555 -2.10449 176.014 -1.59668C176.478 -1.08887 177.098 -0.834961 177.874 -0.834961C178.528 -0.834961 179.144 -1.05225 179.72 -1.48682V-0.344238ZM187.762 0H186.561V-4.32129C186.561 -5.88379 185.979 -6.66504 184.817 -6.66504C184.231 -6.66504 183.738 -6.43799 183.338 -5.98389C182.938 -5.53467 182.737 -4.95605 182.737 -4.24805V0H181.536V-11.1035H182.737V-6.25488H182.767C183.343 -7.20215 184.163 -7.67578 185.228 -7.67578C186.917 -7.67578 187.762 -6.65771 187.762 -4.62158V0Z" fill="#8F96B4"/>
</g>
</g>
</g>
</g>
</g>
<path id="Rectangle 982" opacity="0.84" d="M994.962 -751H-574.962C-583.267 -751 -590 -744.284 -590 -736V370C-590 378.284 -583.267 385 -574.962 385H994.962C1003.27 385 1010 378.284 1010 370V-736C1010 -744.284 1003.27 -751 994.962 -751Z" fill="#1F2748"/>
<g id="Group 15912">
<path id="Background 1" d="M690 -588H-270C-281.046 -588 -290 -579.068 -290 -568.049V201.049C-290 212.068 -281.046 221 -270 221H690C701.046 221 710 212.068 710 201.049V-568.049C710 -579.068 701.046 -588 690 -588Z" fill="#141936"/>
<rect id="Rectangle 1044" x="-50" y="-401" width="521" height="471" rx="5" fill="#1F2748"/>
<g id="Group 15896">
<g id="Check / Checked">
<path id="Ellipse" opacity="0.998" d="M16 32C24.8366 32 32 24.8366 32 16C32 7.16344 24.8366 0 16 0C7.16344 0 0 7.16344 0 16C0 24.8366 7.16344 32 16 32Z" fill="url(#paint3_linear)"/>
<g id="Icon / Check">
<path id="Icon / Check_2" d="M14.1368 21.09L9.49781 16.452C9.36414 16.3181 9.28906 16.1367 9.28906 15.9475C9.28906 15.7583 9.36414 15.5769 9.49781 15.443L10.5068 14.433C10.6407 14.2993 10.8221 14.2243 11.0113 14.2243C11.2005 14.2243 11.3819 14.2993 11.5158 14.433L14.6408 17.558L21.3338 10.865C21.4677 10.7313 21.6491 10.6562 21.8383 10.6562C22.0275 10.6562 22.2089 10.7313 22.3428 10.865L23.3528 11.879C23.4865 12.0129 23.5616 12.1943 23.5616 12.3835C23.5616 12.5727 23.4865 12.7541 23.3528 12.888L15.1458 21.09C15.0119 21.2237 14.8305 21.2988 14.6413 21.2988C14.4521 21.2988 14.2707 21.2237 14.1368 21.09Z" fill="#056C34"/>
</g>
</g>
</g>
</g>
</g>
<defs>
<linearGradient id="paint0_linear" x1="772.673" y1="-1163.03" x2="10.1938" y2="1535.55" gradientUnits="userSpaceOnUse">
<stop stop-color="#2C3B6A"/>
<stop offset="1" stop-color="#131833" stop-opacity="0"/>
</linearGradient>
<linearGradient id="paint1_linear" x1="-634.939" y1="3333.19" x2="-1217.12" y2="495.988" gradientUnits="userSpaceOnUse">
<stop stop-color="#2C3B6A"/>
<stop offset="1" stop-color="#131833" stop-opacity="0"/>
</linearGradient>
<linearGradient id="paint2_linear" x1="-758.181" y1="224.046" x2="2046.6" y2="-863.025" gradientUnits="userSpaceOnUse">
<stop stop-color="#2C3B6A"/>
<stop offset="1" stop-color="#131833" stop-opacity="0"/>
</linearGradient>
<linearGradient id="paint3_linear" x1="14.4" y1="13.92" x2="25.088" y2="29.6" gradientUnits="userSpaceOnUse">
<stop stop-color="#44E18C"/>
<stop offset="1" stop-color="#22CC70"/>
</linearGradient>
<clipPath id="clip0">
<rect width="1600" height="1136" fill="white" transform="translate(-590 -751)"/>
</clipPath>
</defs>
</svg>
