<svg width="36" height="28" viewBox="0 0 36 28" fill="none" xmlns="http://www.w3.org/2000/svg">
    <path d="M20.5912 8.21993L17.369 14.5406L9.98828 10.7758L13.2161 4.45508L20.5912 8.21993Z" fill="#A5ACCB"/>
    <path d="M8.96915 11.546C8.94495 11.5419 8.92024 11.5419 8.89604 11.546C8.86715 11.5548 8.84032 11.5692 8.81713 11.5885C8.79394 11.6079 8.77488 11.6317 8.76108 11.6585L7.60829 13.9079C7.5884 13.9362 7.57513 13.9686 7.56949 14.0028C7.56385 14.0369 7.56597 14.0719 7.57569 14.1051C7.58541 14.1384 7.60249 14.169 7.62566 14.1947C7.64882 14.2204 7.67748 14.2406 7.70951 14.2537L15.9 18.4234C15.9271 18.4375 15.9567 18.446 15.9871 18.4485C16.0175 18.451 16.0481 18.4475 16.0772 18.438C16.1062 18.4286 16.1331 18.4135 16.1562 18.3937C16.1794 18.3738 16.1984 18.3495 16.2121 18.3222L17.3649 16.0729C17.3789 16.0458 17.3874 16.0161 17.3899 15.9857C17.3924 15.9553 17.3889 15.9247 17.3795 15.8957C17.37 15.8666 17.355 15.8398 17.3351 15.8166C17.3152 15.7934 17.2909 15.7745 17.2636 15.7608L9.07318 11.5713C9.0409 11.5551 9.00531 11.5464 8.96915 11.546Z" fill="#A5ACCB"/>
    <path d="M17.8587 16.3161L16.7059 18.5655C16.6586 18.6585 16.5934 18.7412 16.514 18.8089C16.4347 18.8766 16.3427 18.9281 16.2435 18.9602C16.1442 18.9923 16.0396 19.0045 15.9356 18.9962C15.8316 18.9878 15.7303 18.9589 15.6375 18.9113L7.44701 14.7444C7.35417 14.6974 7.27159 14.6324 7.20402 14.5533C7.13645 14.4741 7.08525 14.3824 7.05337 14.2833C7.0219 14.1861 7.00993 14.0837 7.01813 13.9819C7.02633 13.8801 7.05455 13.7809 7.10117 13.69L8.25396 11.4407C8.2982 11.3433 8.36157 11.2557 8.4403 11.1833C8.51903 11.1108 8.61152 11.0549 8.71227 11.0189C8.81132 10.9867 8.91582 10.9745 9.01963 10.9832C9.12345 10.9919 9.22448 11.0212 9.31678 11.0695L17.5129 15.2477C17.6058 15.295 17.6886 15.3602 17.7563 15.4396C17.824 15.519 17.8754 15.6109 17.9075 15.7102C17.9397 15.8094 17.9519 15.914 17.9435 16.018C17.9351 16.122 17.9063 16.2233 17.8587 16.3161Z" fill="#A5ACCB"/>
    <path d="M23.4755 5.31879L22.3199 7.5822C22.2728 7.67508 22.2079 7.75774 22.1288 7.82543C22.0497 7.89312 21.958 7.94452 21.859 7.97666C21.7599 8.00879 21.6555 8.02104 21.5517 8.0127C21.448 8.00436 21.3469 7.97558 21.2542 7.92804L13.061 3.74705C12.8739 3.65146 12.7325 3.48557 12.6676 3.28577C12.6028 3.08598 12.6199 2.86863 12.7151 2.68142L13.8707 0.432069C13.9663 0.24503 14.1322 0.103563 14.332 0.0387235C14.5318 -0.0261163 14.7492 -0.00903027 14.9364 0.0862311L23.1296 4.25035C23.3169 4.34649 23.4584 4.5129 23.5232 4.71315C23.588 4.91339 23.5709 5.13117 23.4755 5.31879Z" fill="#A5ACCB"/>
    <path d="M35.7484 19.7486C35.6177 20.0074 35.4364 20.2373 35.2152 20.4247C34.994 20.6121 34.7374 20.7532 34.4606 20.8395C34.2472 20.9087 34.0242 20.9438 33.7999 20.9436C33.4439 20.9426 33.0936 20.8548 32.7792 20.6877L18.6758 13.2142L20.4359 9.75586L34.7755 16.7851C35.0363 16.9121 35.2692 17.0899 35.4604 17.3081C35.6516 17.5263 35.7973 17.7805 35.8889 18.0557C35.9806 18.331 36.0164 18.6217 35.9942 18.911C35.972 19.2002 35.8922 19.4821 35.7596 19.7402L35.7484 19.7486Z" fill="#A5ACCB"/>
    <path d="M22.0482 22.4062V23.4774H2.18359V22.4062C2.18434 21.906 2.38335 21.4266 2.737 21.0729C3.09065 20.7193 3.5701 20.5203 4.07024 20.5195H20.1615C20.6617 20.5203 21.1411 20.7193 21.4948 21.0729C21.8484 21.4266 22.0474 21.906 22.0482 22.4062Z" fill="#A5ACCB"/>
    <path d="M24.234 24.3222V27.117C24.234 27.1916 24.2043 27.2631 24.1516 27.3158C24.0989 27.3686 24.0274 27.3982 23.9528 27.3982H0.281169C0.206598 27.3982 0.135082 27.3686 0.0823525 27.3158C0.0296231 27.2631 0 27.1916 0 27.117V24.3222C0 24.2476 0.0296231 24.1761 0.0823525 24.1234C0.135082 24.0706 0.206598 24.041 0.281169 24.041H23.9528C24.0274 24.041 24.0989 24.0706 24.1516 24.1234C24.2043 24.1761 24.234 24.2476 24.234 24.3222Z" fill="#A5ACCB"/>
</svg>
