<svg width="32" height="36" viewBox="0 0 32 36" fill="none" xmlns="http://www.w3.org/2000/svg">
    <path d="M9.53125 6.34766H20.1195V8.46531H9.53125V6.34766Z" fill="#A5ACCB"/>
    <path d="M4.23438 31.7647C4.23438 34.1 6.13433 36 8.46967 36H25.4109C25.4109 34.2184 25.4109 1.20395 25.4109 0H4.23438V31.7647ZM22.2344 31.7647H16.9403V29.6471H22.2344V31.7647ZM22.2344 27.5294H16.9403V25.4118H22.2344V27.5294ZM22.2344 23.2941H16.9403V21.1765H22.2344V23.2941ZM22.2344 19.0588H16.9403V16.9412H22.2344V19.0588ZM22.2344 14.8235H16.9403V12.7059H22.2344V14.8235ZM7.41085 4.23529H22.2344V10.5882H7.41085V4.23529ZM7.41085 23.2941H11.6461C13.0511 23.2358 13.0501 21.2343 11.6461 21.1765H10.5873C6.37228 21.0015 6.37553 14.997 10.5873 14.8235V12.7059H12.705V14.8235H14.8226V16.9412H10.5873C9.18233 16.9995 9.18339 19.001 10.5873 19.0588H11.6461C15.228 19.1272 16.0197 24.0035 12.705 25.2296V27.5294H10.5873V25.4118H7.41085V23.2941ZM7.41085 29.6471H14.8226V31.7647H7.41085V29.6471Z" fill="#A5ACCB"/>
    <path d="M27.5312 18V33.8824C27.6431 36.6921 31.6557 36.6899 31.7665 33.8824V18H27.5312Z" fill="#A5ACCB"/>
    <path d="M1.05882 0C0.474071 0 0 0.474071 0 1.05882V8.47059H2.11765V1.05882C2.11765 0.474071 1.64358 0 1.05882 0Z" fill="#A5ACCB"/>
</svg>
