<svg width="36" height="36" viewBox="0 0 36 36" fill="none" xmlns="http://www.w3.org/2000/svg">
    <g clip-path="url(#clip0)">
        <path d="M32.4375 26.4584C31.4432 25.1107 29.6443 23.166 29.6443 23.166C29.6443 23.166 27.8454 25.1107 26.8511 26.4585C25.4058 28.4175 24.7031 29.9222 24.7031 31.0583C24.7031 33.7828 26.9197 35.9994 29.6443 35.9994C32.3689 35.9994 34.5855 33.7828 34.5855 31.0583C34.5855 29.9222 33.8828 28.4175 32.4375 26.4584Z" fill="#A5ACCB"/>
        <path d="M23.6122 10.5547L23.2549 10.5584C22.7946 10.5632 22.3619 10.3879 22.035 10.0645C21.7081 9.74111 21.5281 9.30974 21.5281 8.84993V5.29412H18.3516V3.17647H23.6457V1.05882H18.3516V0H16.234V1.05882H10.9398V3.17647H16.234V5.29412H13.0575V8.58805C13.0575 9.69099 12.1602 10.5882 11.0573 10.5882H8.37891C8.43735 10.8996 8.46926 11.2201 8.46926 11.5482V17.0401C8.46926 17.3681 8.43728 17.6886 8.37891 18H23.6457C24.8134 18 25.7634 18.95 25.7634 20.1176V21.1765H33.1751V20.1176C33.1751 14.8446 28.8852 10.5547 23.6122 10.5547Z" fill="#A5ACCB"/>
        <path d="M3.27376 8.4707H1.41016V20.1178H3.27376C4.9707 20.1178 6.35133 18.7371 6.35133 17.0402V11.5483C6.35133 9.85134 4.9707 8.4707 3.27376 8.4707Z" fill="#A5ACCB"/>
    </g>
    <defs>
        <clipPath id="clip0">
            <rect width="36" height="36" fill="white"/>
        </clipPath>
    </defs>
</svg>
