<svg width="18" height="18" viewBox="0 0 18 18" fill="none" xmlns="http://www.w3.org/2000/svg">
<path d="M9 17C13.4183 17 17 13.4183 17 9C17 4.58172 13.4183 1 9 1C4.58172 1 1 4.58172 1 9C1 13.4183 4.58172 17 9 17Z" stroke="#38D982" stroke-width="1.5" stroke-linecap="round" stroke-linejoin="round"/>
<path d="M6.67188 6.59995C6.85996 6.06528 7.2312 5.61443 7.71984 5.32726C8.20848 5.04008 8.78299 4.9351 9.34162 5.03092C9.90024 5.12674 10.4069 5.41717 10.7719 5.85077C11.1369 6.28437 11.3367 6.83317 11.3359 7.39995C11.3359 8.99995 8.93588 9.79995 8.93588 9.79995" stroke="#38D982" stroke-width="1.5" stroke-linecap="round" stroke-linejoin="round"/>
<path d="M9 13H9.01" stroke="#38D982" stroke-width="1.5" stroke-linecap="round" stroke-linejoin="round"/>
</svg>
