<svg width="36" height="36" viewBox="0 0 36 36" fill="none" xmlns="http://www.w3.org/2000/svg">
    <path d="M12.375 18.9844H23.625C25.7574 18.9844 27.4922 17.2496 27.4922 15.1172V3.86719C27.4922 1.73482 25.7574 0 23.625 0H12.375C10.2426 0 8.50781 1.73482 8.50781 3.86719V15.1172C8.50781 17.2496 10.2426 18.9844 12.375 18.9844ZM13.0282 9.24363C13.44 8.83174 14.1079 8.83174 14.5197 9.24363L16.2599 10.9837L21.4803 5.7633C21.8921 5.35141 22.56 5.35141 22.9719 5.7633C23.3838 6.1752 23.3838 6.84295 22.9719 7.25484L17.0056 13.2211C16.7997 13.427 16.5298 13.53 16.2599 13.53C15.99 13.53 15.72 13.4271 15.5142 13.2211L13.0283 10.7352C12.6163 10.3233 12.6163 9.65552 13.0282 9.24363Z" fill="#A5ACCB"/>
    <path d="M18 28.6172C20.0387 28.6172 21.6914 26.9645 21.6914 24.9258C21.6914 22.8871 20.0387 21.2344 18 21.2344C15.9613 21.2344 14.3086 22.8871 14.3086 24.9258C14.3086 26.9645 15.9613 28.6172 18 28.6172Z" fill="#A5ACCB"/>
    <path d="M29.7773 28.6172C31.8161 28.6172 33.4688 26.9645 33.4688 24.9258C33.4688 22.8871 31.8161 21.2344 29.7773 21.2344C27.7386 21.2344 26.0859 22.8871 26.0859 24.9258C26.0859 26.9645 27.7386 28.6172 29.7773 28.6172Z" fill="#A5ACCB"/>
    <path d="M6.22266 28.6172C8.26136 28.6172 9.91406 26.9645 9.91406 24.9258C9.91406 22.8871 8.26136 21.2344 6.22266 21.2344C4.18395 21.2344 2.53125 22.8871 2.53125 24.9258C2.53125 26.9645 4.18395 28.6172 6.22266 28.6172Z" fill="#A5ACCB"/>
    <path d="M33.8189 29.0781C32.7732 30.0967 31.3464 30.726 29.7747 30.726C28.203 30.726 26.7762 30.0967 25.7305 29.0781C25.5341 29.2495 25.349 29.4334 25.1758 29.6282C25.8648 30.834 26.2591 32.2289 26.2591 33.7142V35.9994H34.8724C35.4548 35.9994 35.9271 35.5272 35.9271 34.9447V33.7142C35.9271 31.8647 35.1107 30.2059 33.8189 29.0781Z" fill="#A5ACCB"/>
    <path d="M10.2669 29.0781C9.22113 30.0967 7.79435 30.726 6.22266 30.726C4.65096 30.726 3.22418 30.0967 2.17842 29.0781C0.886641 30.2059 0.0703125 31.8647 0.0703125 33.7142V34.9447C0.0703125 35.5272 0.542531 35.9994 1.125 35.9994H9.73828V33.7142C9.73828 32.2289 10.1325 30.8339 10.8216 29.6282C10.6484 29.4334 10.4632 29.2495 10.2669 29.0781Z" fill="#A5ACCB"/>
    <path d="M22.0442 29.0781C20.9985 30.0967 19.5717 30.726 18 30.726C16.4283 30.726 15.0015 30.0967 13.9558 29.0781C12.664 30.2059 11.8477 31.8647 11.8477 33.7142V35.9994H24.1523V33.7142C24.1523 31.8647 23.336 30.2059 22.0442 29.0781Z" fill="#A5ACCB"/>
</svg>
