<svg width="14" height="17" viewBox="0 0 14 17" fill="none" xmlns="http://www.w3.org/2000/svg">
<path d="M10.771 2.36583C10.9709 2.34845 11.1697 2.41013 11.3247 2.53763C11.4797 2.66513 11.5785 2.8483 11.6 3.04783V13.2748L7.623 10.8198L6.629 10.2058L5.635 10.8198L1.658 13.2748V3.04683C1.67949 2.8473 1.77832 2.66413 1.9333 2.53663C2.08829 2.40913 2.28707 2.34745 2.487 2.36483H10.773L10.771 2.36583ZM10.773 1.00083H2.486C1.88631 0.948714 1.29008 1.13378 0.825298 1.5163C0.360514 1.89882 0.0642163 2.44831 0 3.04683V16.0018L6.628 11.9108L13.257 16.0018V3.04683C13.1925 2.44849 12.8961 1.89925 12.4314 1.51694C11.9666 1.13463 11.3705 0.9497 10.771 1.00183L10.773 1.00083Z" fill="#38D982"/>
</svg>
