<svg width="21" height="20" viewBox="0 0 21 20" fill="none" xmlns="http://www.w3.org/2000/svg">
<path d="M10.8633 20C8.21112 20 5.66758 18.9464 3.79221 17.0711C1.91685 15.1957 0.863281 12.6522 0.863281 10C0.863281 7.34784 1.91685 4.8043 3.79221 2.92893C5.66758 1.05357 8.21112 0 10.8633 0C12.5058 0.00821894 14.1218 0.414335 15.5731 1.18358C17.0243 1.95283 18.2675 3.06229 19.1963 4.417C19.2584 4.51003 19.3013 4.61446 19.3227 4.72424C19.3441 4.83401 19.3434 4.94694 19.3207 5.05646C19.2981 5.16598 19.2539 5.2699 19.1907 5.36219C19.1276 5.45448 19.0467 5.5333 18.9528 5.59406C18.8589 5.65482 18.7539 5.69631 18.6438 5.71613C18.5337 5.73595 18.4208 5.73369 18.3116 5.7095C18.2024 5.6853 18.0992 5.63964 18.0078 5.57518C17.9164 5.51072 17.8387 5.42874 17.7793 5.334C16.7788 3.85673 15.331 2.73916 13.6485 2.14537C11.9661 1.55159 10.1375 1.51287 8.43144 2.03492C6.72534 2.55696 5.23156 3.61226 4.16944 5.04586C3.10732 6.47946 2.53281 8.21582 2.53028 10C2.53028 12.2102 3.40827 14.3298 4.97111 15.8927C6.53394 17.4555 8.6536 18.3335 10.8638 18.3335C13.074 18.3335 15.1936 17.4555 16.7565 15.8927C18.3193 14.3298 19.1973 12.2102 19.1973 10C19.1973 9.89061 19.2188 9.78229 19.2607 9.68122C19.3026 9.58016 19.3639 9.48833 19.4413 9.41098C19.5186 9.33363 19.6104 9.27227 19.7115 9.23041C19.8126 9.18855 19.9209 9.167 20.0303 9.167C20.1397 9.167 20.248 9.18855 20.3491 9.23041C20.4501 9.27227 20.542 9.33363 20.6193 9.41098C20.6967 9.48833 20.758 9.58016 20.7999 9.68122C20.8417 9.78229 20.8633 9.89061 20.8633 10C20.8556 12.6498 19.7996 15.1889 17.9259 17.0626C16.0522 18.9363 13.5131 19.9923 10.8633 20Z" fill="white"/>
<path d="M19.1867 6.71369H15.8307C15.7187 6.72039 15.6066 6.70328 15.5018 6.66349C15.397 6.6237 15.3018 6.56213 15.2225 6.48284C15.1432 6.40355 15.0816 6.30835 15.0418 6.20352C15.0021 6.09869 14.9849 5.98662 14.9917 5.87469C14.9849 5.76276 15.0021 5.65068 15.0418 5.54585C15.0816 5.44102 15.1432 5.34582 15.2225 5.26653C15.3018 5.18725 15.397 5.12567 15.5018 5.08588C15.6066 5.04609 15.7187 5.02898 15.8307 5.03569H18.3477V2.51869C18.3477 2.29617 18.436 2.08277 18.5934 1.92542C18.7507 1.76808 18.9641 1.67969 19.1867 1.67969C19.4092 1.67969 19.6226 1.76808 19.7799 1.92542C19.9373 2.08277 20.0257 2.29617 20.0257 2.51869V5.87469C20.0324 5.98662 20.0153 6.09869 19.9755 6.20352C19.9357 6.30835 19.8741 6.40355 19.7948 6.48284C19.7155 6.56213 19.6203 6.6237 19.5155 6.66349C19.4107 6.70328 19.2986 6.72039 19.1867 6.71369Z" fill="white"/>
</svg>
