<svg width="36" height="36" viewBox="0 0 36 36" fill="none" xmlns="http://www.w3.org/2000/svg">
    <path d="M23.625 2.25H21.1815C20.718 0.9405 19.467 0 18 0C16.533 0 15.282 0.9405 14.8163 2.25H12.375C11.754 2.25 11.25 2.754 11.25 3.375V7.875C11.25 8.496 11.754 9 12.375 9H23.625C24.246 9 24.75 8.496 24.75 7.875V3.375C24.75 2.754 24.246 2.25 23.625 2.25Z" fill="#A5ACCB"/>
    <path d="M29.25 4.5H27V7.875C27 9.73575 25.4858 11.25 23.625 11.25H12.375C10.5142 11.25 9 9.73575 9 7.875V4.5H6.75C5.51025 4.5 4.5 5.51025 4.5 6.75V33.75C4.5 35.0123 5.48775 36 6.75 36H29.25C30.5123 36 31.5 35.0123 31.5 33.75V6.75C31.5 5.48775 30.5123 4.5 29.25 4.5ZM17.6715 24.4215L13.1715 28.9215C12.951 29.1397 12.663 29.25 12.375 29.25C12.087 29.25 11.799 29.1397 11.5785 28.9215L9.3285 26.6715C8.88975 26.2327 8.88975 25.5195 9.3285 25.0808C9.76725 24.642 10.4805 24.642 10.9193 25.0808L12.375 26.5343L16.0785 22.8308C16.5173 22.392 17.2305 22.392 17.6693 22.8308C18.108 23.2695 18.1103 23.9805 17.6715 24.4215ZM17.6715 15.4215L13.1715 19.9215C12.951 20.1398 12.663 20.25 12.375 20.25C12.087 20.25 11.799 20.1398 11.5785 19.9215L9.3285 17.6715C8.88975 17.2327 8.88975 16.5195 9.3285 16.0807C9.76725 15.642 10.4805 15.642 10.9193 16.0807L12.375 17.5343L16.0785 13.8307C16.5173 13.392 17.2305 13.392 17.6693 13.8307C18.108 14.2695 18.1103 14.9805 17.6715 15.4215ZM25.875 27H21.375C20.754 27 20.25 26.496 20.25 25.875C20.25 25.254 20.754 24.75 21.375 24.75H25.875C26.496 24.75 27 25.254 27 25.875C27 26.496 26.496 27 25.875 27ZM25.875 18H21.375C20.754 18 20.25 17.496 20.25 16.875C20.25 16.254 20.754 15.75 21.375 15.75H25.875C26.496 15.75 27 16.254 27 16.875C27 17.496 26.496 18 25.875 18Z" fill="#A5ACCB"/>
</svg>
