<svg width="50" height="50" viewBox="0 0 50 50" fill="none" xmlns="http://www.w3.org/2000/svg">
<path d="M9.0625 18.6562H20.8043C21.6133 18.6562 22.2691 18.0004 22.2691 17.1914C22.2691 16.3824 21.6133 15.7266 20.8043 15.7266H9.0625C8.25352 15.7266 7.59766 16.3824 7.59766 17.1914C7.59766 18.0004 8.25352 18.6562 9.0625 18.6562Z" fill="#38D982"/>
<path d="M20.5513 33.3047H9.0625C8.25352 33.3047 7.59766 33.9605 7.59766 34.7695C7.59766 35.5785 8.25352 36.2344 9.0625 36.2344H20.5513C21.3603 36.2344 22.0161 35.5785 22.0161 34.7695C22.0161 33.9605 21.3603 33.3047 20.5513 33.3047Z" fill="#38D982"/>
<path d="M20.5513 39.1641H9.0625C8.25352 39.1641 7.59766 39.8199 7.59766 40.6289C7.59766 41.4379 8.25352 42.0937 9.0625 42.0937H20.5513C21.3603 42.0937 22.0161 41.4379 22.0161 40.6289C22.0161 39.8199 21.3603 39.1641 20.5513 39.1641Z" fill="#38D982"/>
<path d="M48.8857 25C48.8857 19.3396 44.6585 14.6487 39.1954 13.9167V1.46484C39.1954 0.655859 38.5396 0 37.7306 0H11.4676C11.079 0 10.7064 0.154395 10.4317 0.429199L1.54229 9.31982C1.26768 9.59443 1.11328 9.96709 1.11328 10.3555V48.5352C1.11328 49.3441 1.76914 50 2.57813 50H37.7305C38.5395 50 39.1953 49.3441 39.1953 48.5352V36.0833C44.6585 35.3513 48.8857 30.6604 48.8857 25ZM10.0027 5.00166V8.88955H6.11543L10.0027 5.00166ZM4.04297 47.0703V11.8191H11.4676C12.2766 11.8191 12.9324 11.1633 12.9324 10.3543V2.92969H36.2656V13.9089C31.9245 14.4682 28.3558 17.5266 27.0518 21.5899C27.0179 21.5876 26.9841 21.5848 26.9497 21.5848H9.06211C8.25313 21.5848 7.59727 22.2406 7.59727 23.0496C7.59727 23.8586 8.25313 24.5145 9.06211 24.5145H26.5307C26.5237 24.6755 26.5194 24.8372 26.5194 25C26.5194 25.8394 26.6131 26.6571 26.7892 27.4441H9.06211C8.25313 27.4441 7.59727 28.1 7.59727 28.909C7.59727 29.718 8.25313 30.3738 9.06211 30.3738H27.898C29.582 33.4343 32.657 35.6262 36.2657 36.0911V47.0703H4.04297ZM37.7026 33.2535C33.1516 33.2535 29.4491 29.5511 29.4491 25C29.4491 20.4489 33.1516 16.7465 37.7026 16.7465C42.2536 16.7465 45.9561 20.4489 45.9561 25C45.9561 29.5511 42.2536 33.2535 37.7026 33.2535Z" fill="#38D982"/>
<path d="M40.1292 22.0891L36.8376 25.3808L35.2819 23.8251C34.7099 23.2531 33.7824 23.2531 33.2103 23.8251C32.6382 24.397 32.6382 25.3246 33.2103 25.8966L35.8018 28.4882C36.0764 28.7629 36.4491 28.9173 36.8375 28.9173C37.226 28.9173 37.5987 28.763 37.8733 28.4882L42.2006 24.1607C42.7727 23.5887 42.7727 22.6612 42.2006 22.0891C41.6287 21.5172 40.7012 21.5172 40.1292 22.0891Z" fill="#38D982"/>
</svg>
