<svg xmlns="http://www.w3.org/2000/svg" width="65.006" height="64.828" viewBox="0 0 65.006 64.828"><defs><style>.a{fill:none;stroke:#5e6891;stroke-linecap:round;stroke-linejoin:round;stroke-width:2px;}</style></defs><g transform="translate(0.287 0.415)"><path class="a" d="M49.294,43.741a28.708,28.708,0,0,1-16.934,5.873C12.4,49.614,1,26.807,1,26.807A52.6,52.6,0,0,1,15.425,9.873M26.373,4.684A26,26,0,0,1,32.359,4C52.316,4,63.719,26.807,63.719,26.807A52.742,52.742,0,0,1,57.561,35.9M38.4,32.851A8.553,8.553,0,1,1,26.316,20.763" transform="translate(0 5.553)"/><line class="a" x2="62" y2="62" transform="translate(1.128 1)"/></g></svg>