<svg width="18" height="15" viewBox="0 0 18 15" fill="none" xmlns="http://www.w3.org/2000/svg">
<path opacity="0.998" d="M15.453 10.7117V7.97169C15.453 7.83033 15.3968 7.69476 15.2969 7.5948C15.1969 7.49484 15.0614 7.43869 14.92 7.43869H9.059V5.05469H7.99301V7.43369H2.13101C1.98964 7.43369 1.85407 7.48984 1.75412 7.5898C1.65416 7.68975 1.59801 7.82533 1.59801 7.96669V10.7117C1.09584 10.8414 0.658223 11.1498 0.367173 11.5791C0.0761237 12.0084 -0.048377 12.5291 0.0170062 13.0436C0.0823894 13.5581 0.333168 14.0311 0.722339 14.374C1.11151 14.7168 1.61236 14.906 2.13101 14.906C2.64965 14.906 3.1505 14.7168 3.53967 14.374C3.92884 14.0311 4.17962 13.5581 4.245 13.0436C4.31039 12.5291 4.18589 12.0084 3.89484 11.5791C3.60379 11.1498 3.16617 10.8414 2.66401 10.7117V8.49969H7.99301V10.7117C7.49084 10.8414 7.05322 11.1498 6.76217 11.5791C6.47112 12.0084 6.34662 12.5291 6.41201 13.0436C6.47739 13.5581 6.72817 14.0311 7.11734 14.374C7.50651 14.7168 8.00736 14.906 8.526 14.906C9.04465 14.906 9.5455 14.7168 9.93467 14.374C10.3238 14.0311 10.5746 13.5581 10.64 13.0436C10.7054 12.5291 10.5809 12.0084 10.2898 11.5791C9.99879 11.1498 9.56117 10.8414 9.059 10.7117V8.49969H14.388V10.7117C13.8858 10.8414 13.4482 11.1498 13.1572 11.5791C12.8661 12.0084 12.7416 12.5291 12.807 13.0436C12.8724 13.5581 13.1232 14.0311 13.5123 14.374C13.9015 14.7168 14.4024 14.906 14.921 14.906C15.4397 14.906 15.9405 14.7168 16.3297 14.374C16.7188 14.0311 16.9696 13.5581 17.035 13.0436C17.1004 12.5291 16.9759 12.0084 16.6848 11.5791C16.3938 11.1498 15.9562 10.8414 15.454 10.7117H15.453Z" fill="url(#paint0_linear)"/>
<path d="M8.04675 0.372589L5.69575 4.29759C5.64715 4.38156 5.62141 4.4768 5.6211 4.57382C5.62078 4.67085 5.64591 4.76625 5.69397 4.85054C5.74203 4.93482 5.81134 5.00503 5.895 5.05417C5.97866 5.10331 6.07374 5.12966 6.17075 5.13059H10.8698C10.9668 5.12966 11.0618 5.10331 11.1455 5.05417C11.2292 5.00503 11.2985 4.93482 11.3465 4.85054C11.3946 4.76625 11.4197 4.67085 11.4194 4.57382C11.4191 4.4768 11.3934 4.38156 11.3448 4.29759L8.99575 0.372589C8.94628 0.291045 8.87663 0.223626 8.79351 0.176838C8.7104 0.130049 8.61663 0.105469 8.52125 0.105469C8.42588 0.105469 8.33211 0.130049 8.24899 0.176838C8.16588 0.223626 8.09623 0.291045 8.04675 0.372589Z" fill="url(#paint1_linear)"/>
<defs>
<linearGradient id="paint0_linear" x1="7.67341" y1="9.33999" x2="10.0837" y2="15.4607" gradientUnits="userSpaceOnUse">
<stop stop-color="#38D982"/>
<stop offset="1" stop-color="#22CC70"/>
</linearGradient>
<linearGradient id="paint1_linear" x1="8.23034" y1="2.2914" x2="9.80962" y2="4.96481" gradientUnits="userSpaceOnUse">
<stop stop-color="#38D982"/>
<stop offset="1" stop-color="#22CC70"/>
</linearGradient>
</defs>
</svg>
