<svg xmlns="http://www.w3.org/2000/svg" width="20" height="20" viewBox="0 0 20 20"><defs><style>.a{fill:#8f96b4;}</style></defs><path class="a" d="M10,20A10,10,0,0,1,10,0a10.165,10.165,0,0,1,8.333,4.417.844.844,0,1,1-1.417.917A8.342,8.342,0,0,0,1.667,10a8.333,8.333,0,1,0,16.667,0A.833.833,0,1,1,20,10,10.029,10.029,0,0,1,10,20Z"/><g transform="translate(14.128 1.678)"><path class="a" d="M21.195,7.034H17.839A.793.793,0,0,1,17,6.195a.793.793,0,0,1,.839-.839h2.517V2.839a.839.839,0,0,1,1.678,0V6.195A.793.793,0,0,1,21.195,7.034Z" transform="translate(-17 -2)"/></g></svg>