<svg width="16" height="19" viewBox="0 0 16 19" fill="none" xmlns="http://www.w3.org/2000/svg">
<path d="M15 7.94531C15 13.3893 8 18.0563 8 18.0563C8 18.0563 1 13.3893 1 7.94531C1 7.02606 1.18106 6.11581 1.53284 5.26653C1.88463 4.41725 2.40024 3.64558 3.05025 2.99556C3.70026 2.34555 4.47194 1.82994 5.32122 1.47816C6.1705 1.12637 7.08075 0.945313 8 0.945312C8.91925 0.945312 9.82951 1.12637 10.6788 1.47816C11.5281 1.82994 12.2997 2.34555 12.9497 2.99556C13.5998 3.64558 14.1154 4.41725 14.4672 5.26653C14.8189 6.11581 15 7.02606 15 7.94531V7.94531Z" stroke="#38D982" stroke-linecap="round" stroke-linejoin="round"/>
<path d="M8 11.1133C9.65685 11.1133 11 9.77014 11 8.11328C11 6.45643 9.65685 5.11328 8 5.11328C6.34315 5.11328 5 6.45643 5 8.11328C5 9.77014 6.34315 11.1133 8 11.1133Z" stroke="#38D982" stroke-linecap="round" stroke-linejoin="round"/>
</svg>
