<svg xmlns="http://www.w3.org/2000/svg" width="25" height="20" viewBox="0 0 25 20">
    <defs>
        <style>.a{isolation:isolate;}.b{fill:#38d881;}</style>
    </defs>
    <g class="a">
        <path class="b"
              d="M291,337a1,1,0,0,1,.993.883L292,338v2h2a1,1,0,0,1,.117,1.993L294,342h-2v2a1,1,0,0,1-1.993.117L290,344v-2h-2a1,1,0,0,1-.117-1.993L288,340h2v-2A1,1,0,0,1,291,337Zm-14-12a4.992,4.992,0,0,1,4,2,4.991,4.991,0,0,1,3.743-1.993L285,325h6a1,1,0,0,1,.993.883L292,326v9.083a6.069,6.069,0,0,0-2,0V327h-5a3,3,0,0,0-2.995,2.824L282,330v10.535l.145-.08a3.973,3.973,0,0,1,1.4-.43l.253-.02.2,0h1.083a6.069,6.069,0,0,0,0,2H284a2,2,0,0,0-2,2,.949.949,0,0,1-.845.989l-.1.01h-.1a.952.952,0,0,1-.941-.866L280,344l-.005-.149a2,2,0,0,0-1.838-1.845L278,342h-7a1,1,0,0,1-.993-.883L270,341V326a1,1,0,0,1,.883-.993L271,325Zm0,2h-5v13h6a3.986,3.986,0,0,1,1.643.352l.211.1.145.081V330l-.005-.176a3,3,0,0,0-2.638-2.8l-.18-.016Z"
              transform="translate(-270 -325)"/>
    </g>
</svg>