<svg xmlns="http://www.w3.org/2000/svg" width="32.221" height="32.221" viewBox="0 0 32.221 32.221"><defs><style>.a{fill:#8f96b4;}</style></defs><g transform="translate(0)"><path class="a" d="M30.978,55.443a.629.629,0,0,0-.26-.851,9.869,9.869,0,0,0-10.883,1.087l-1.017-1.017L20.478,53a.629.629,0,0,0-.89-.89l-1.661,1.661L13.875,49.72a8.8,8.8,0,0,0,.715-9.388.629.629,0,1,0-1.111.591,7.5,7.5,0,0,1-.5,7.9l-2.67-2.67a1.544,1.544,0,0,0-2.542.561L.1,67.624A1.547,1.547,0,0,0,1.54,69.7a1.562,1.562,0,0,0,.538-.1l20.914-7.666a1.544,1.544,0,0,0,.561-2.542l-2.823-2.823a8.609,8.609,0,0,1,9.4-.871.629.629,0,0,0,.851-.26ZM10.023,65.352,4.349,59.678l1.572-4.289,8.391,8.391ZM6.948,66.479,3.222,62.753l.65-1.773,4.849,4.849Zm-5.3,1.944a.286.286,0,0,1-.367-.367l1.467-4,2.9,2.9ZM22.739,60.55a.278.278,0,0,1-.181.207L18.69,62.175,15.111,58.6a.629.629,0,1,0-.89.89l3.167,3.167-1.773.65L6.4,54.087l.65-1.773,3.167,3.167a.629.629,0,1,0,.89-.89L7.526,51.012l1.418-3.869a.278.278,0,0,1,.207-.181.3.3,0,0,1,.065-.007.274.274,0,0,1,.2.084L22.662,60.287a.278.278,0,0,1,.077.264Z" transform="translate(0 -37.481)"/><path class="a" d="M292.226,13.857a.629.629,0,0,0,.629-.629.957.957,0,0,1,.956-.956,2.217,2.217,0,0,0,2.214-2.214.629.629,0,0,0-1.259,0,.957.957,0,0,1-.956.956,2.217,2.217,0,0,0-2.214,2.214A.629.629,0,0,0,292.226,13.857Z" transform="translate(-273.247 -8.835)"/><path class="a" d="M380.948,106.087a2.29,2.29,0,0,0,2.287-2.287,1.029,1.029,0,0,1,1.028-1.028.629.629,0,1,0,0-1.259,2.29,2.29,0,0,0-2.287,2.287,1.03,1.03,0,0,1-1.028,1.028.629.629,0,0,0,0,1.259Z" transform="translate(-356.385 -95.125)"/><path class="a" d="M448,163.5a2.014,2.014,0,1,0,2.014-2.014A2.016,2.016,0,0,0,448,163.5Zm2.014-.755a.755.755,0,1,1-.755.755A.756.756,0,0,1,450.016,162.744Z" transform="translate(-419.809 -151.323)"/><path class="a" d="M285.124,109.882a2.014,2.014,0,1,0-2.014-2.014A2.016,2.016,0,0,0,285.124,109.882Zm0-2.769a.755.755,0,1,1-.755.755A.756.756,0,0,1,285.124,107.113Z" transform="translate(-265.294 -99.193)"/><path class="a" d="M98.016,4.028A2.014,2.014,0,1,0,96,2.014,2.016,2.016,0,0,0,98.016,4.028Zm0-2.769a.755.755,0,1,1-.755.755A.756.756,0,0,1,98.016,1.259Z" transform="translate(-89.961)"/><path class="a" d="M436.508,348.313a.629.629,0,1,0-.89.89l.593.593a.629.629,0,1,0,.89-.89Z" transform="translate(-408.031 -326.221)"/><path class="a" d="M483.648,395.454a.629.629,0,0,0-.89.89l.593.593a.629.629,0,0,0,.89-.89Z" transform="translate(-452.204 -370.395)"/><path class="a" d="M483.351,348.313l-.593.593a.629.629,0,0,0,.89.89l.593-.593a.629.629,0,1,0-.89-.89Z" transform="translate(-452.204 -326.221)"/><path class="a" d="M436.211,395.454l-.593.593a.629.629,0,1,0,.89.89l.593-.593a.629.629,0,0,0-.89-.89Z" transform="translate(-408.031 -370.395)"/><path class="a" d="M483.2,1.852a.627.627,0,0,0,.445-.184l.593-.593a.629.629,0,1,0-.89-.89l-.593.593a.629.629,0,0,0,.445,1.074Z" transform="translate(-452.205 0)"/><path class="a" d="M436.062,48.991a.627.627,0,0,0,.445-.184l.593-.593a.629.629,0,1,0-.89-.89l-.593.593a.629.629,0,0,0,.445,1.074Z" transform="translate(-408.03 -44.173)"/><path class="a" d="M483.648,47.325a.629.629,0,1,0-.89.89l.593.593a.629.629,0,1,0,.89-.89Z" transform="translate(-452.204 -44.174)"/><path class="a" d="M436.21,1.668a.629.629,0,1,0,.89-.89l-.593-.593a.629.629,0,0,0-.89.89Z" transform="translate(-408.03 0)"/><path class="a" d="M191.85,300.78a.629.629,0,1,0,.445.184A.634.634,0,0,0,191.85,300.78Z" transform="translate(-179.187 -281.852)"/><path class="a" d="M337.58,193.872l-.456.456a.629.629,0,1,0,.89.89l.456-.456a.629.629,0,1,0-.89-.89Z" transform="translate(-315.735 -181.498)"/></g></svg>