<svg width="20" height="20" viewBox="0 0 20 20" fill="none" xmlns="http://www.w3.org/2000/svg">
    <path d="M17.1674 15.9864L14.3484 13.1764C15.2574 12.0177 15.7505 10.5871 15.7484 9.11443C15.7484 7.80274 15.3594 6.52051 14.6307 5.42988C13.902 4.33926 12.8662 3.48922 11.6543 2.98726C10.4425 2.4853 9.10902 2.35396 7.82254 2.60986C6.53606 2.86575 5.35435 3.49739 4.42685 4.42489C3.49934 5.35239 2.86771 6.5341 2.61181 7.82059C2.35591 9.10707 2.48725 10.4405 2.98921 11.6524C3.49117 12.8642 4.34121 13.9 5.43184 14.6287C6.52246 15.3575 7.80469 15.7464 9.11638 15.7464C10.5891 15.7485 12.0197 15.2554 13.1784 14.3464L15.9884 17.1654C16.1447 17.3218 16.3568 17.4096 16.5779 17.4096C16.799 17.4096 17.011 17.3218 17.1674 17.1654C17.3237 17.0091 17.4116 16.797 17.4116 16.5759C17.4116 16.3548 17.3237 16.1428 17.1674 15.9864ZM4.14338 9.11842C4.14338 8.13466 4.4351 7.17299 4.98165 6.35502C5.5282 5.53705 6.30503 4.89952 7.21391 4.52305C8.12279 4.14658 9.1229 4.04808 10.0878 4.24C11.0526 4.43192 11.9389 4.90565 12.6345 5.60128C13.3302 6.2969 13.8039 7.18318 13.9958 8.14805C14.1877 9.11291 14.0892 10.113 13.7128 11.0219C13.3363 11.9308 12.6988 12.7076 11.8808 13.2542C11.0628 13.8007 10.1011 14.0924 9.11738 14.0924C8.46418 14.0924 7.81738 13.9638 7.21391 13.7138C6.61044 13.4638 6.06211 13.0975 5.60023 12.6356C4.66742 11.7028 4.14338 10.4376 4.14338 9.11842Z" fill="#38D982"/>
</svg>
