<svg width="21" height="20" viewBox="0 0 21 20" fill="none" xmlns="http://www.w3.org/2000/svg">
<path d="M10.6602 20C8.00799 20 5.46445 18.9464 3.58909 17.0711C1.71372 15.1957 0.660156 12.6522 0.660156 10C0.660156 7.34784 1.71372 4.8043 3.58909 2.92893C5.46445 1.05357 8.00799 0 10.6602 0C12.3026 0.00821894 13.9187 0.414335 15.3699 1.18358C16.8212 1.95283 18.0644 3.06229 18.9932 4.417C19.0552 4.51003 19.0982 4.61446 19.1196 4.72424C19.1409 4.83401 19.1403 4.94694 19.1176 5.05646C19.095 5.16598 19.0508 5.2699 18.9876 5.36219C18.9244 5.45448 18.8436 5.5333 18.7497 5.59406C18.6558 5.65482 18.5507 5.69631 18.4407 5.71613C18.3306 5.73595 18.2177 5.73369 18.1085 5.7095C17.9993 5.6853 17.896 5.63964 17.8046 5.57518C17.7133 5.51072 17.6356 5.42874 17.5762 5.334C16.5757 3.85673 15.1279 2.73916 13.4454 2.14537C11.7629 1.55159 9.93441 1.51287 8.22831 2.03492C6.52221 2.55696 5.02844 3.61226 3.96631 5.04586C2.90419 6.47946 2.32969 8.21582 2.32716 10C2.32716 12.2102 3.20515 14.3298 4.76798 15.8927C6.33082 17.4555 8.45047 18.3335 10.6607 18.3335C12.8708 18.3335 14.9905 17.4555 16.5533 15.8927C18.1162 14.3298 18.9942 12.2102 18.9942 10C18.9942 9.89061 19.0157 9.78229 19.0576 9.68122C19.0994 9.58016 19.1608 9.48833 19.2381 9.41098C19.3155 9.33363 19.4073 9.27227 19.5084 9.23041C19.6094 9.18855 19.7178 9.167 19.8272 9.167C19.9365 9.167 20.0449 9.18855 20.1459 9.23041C20.247 9.27227 20.3388 9.33363 20.4162 9.41098C20.4935 9.48833 20.5549 9.58016 20.5967 9.68122C20.6386 9.78229 20.6602 9.89061 20.6602 10C20.6525 12.6498 19.5965 15.1889 17.7228 17.0626C15.8491 18.9363 13.31 19.9923 10.6602 20Z" fill="#8F96B4"/>
<path d="M18.9816 6.71369H15.6256C15.5136 6.72039 15.4016 6.70328 15.2967 6.66349C15.1919 6.6237 15.0967 6.56213 15.0174 6.48284C14.9381 6.40355 14.8766 6.30835 14.8368 6.20352C14.797 6.09869 14.7799 5.98662 14.7866 5.87469C14.7799 5.76276 14.797 5.65068 14.8368 5.54585C14.8766 5.44102 14.9381 5.34582 15.0174 5.26653C15.0967 5.18725 15.1919 5.12567 15.2967 5.08588C15.4016 5.04609 15.5136 5.02898 15.6256 5.03569H18.1426V2.51869C18.1426 2.29617 18.231 2.08277 18.3883 1.92542C18.5457 1.76808 18.7591 1.67969 18.9816 1.67969C19.2041 1.67969 19.4175 1.76808 19.5748 1.92542C19.7322 2.08277 19.8206 2.29617 19.8206 2.51869V5.87469C19.8273 5.98662 19.8102 6.09869 19.7704 6.20352C19.7306 6.30835 19.669 6.40355 19.5897 6.48284C19.5104 6.56213 19.4152 6.6237 19.3104 6.66349C19.2056 6.70328 19.0935 6.72039 18.9816 6.71369Z" fill="#8F96B4"/>
</svg>
