<svg width="20" height="16" viewBox="0 0 20 16" fill="none" xmlns="http://www.w3.org/2000/svg">
<path d="M13.913 15.0881V13.4741C13.913 12.618 13.5729 11.7969 12.9675 11.1916C12.3622 10.5862 11.5411 10.2461 10.685 10.2461H4.228C3.37188 10.2461 2.55083 10.5862 1.94546 11.1916C1.34009 11.7969 1 12.618 1 13.4741V15.0881" stroke="#38D982" stroke-linecap="round" stroke-linejoin="round"/>
<path d="M7.45456 7.0185C9.23734 7.0185 10.6826 5.57328 10.6826 3.7905C10.6826 2.00772 9.23734 0.5625 7.45456 0.5625C5.67179 0.5625 4.22656 2.00772 4.22656 3.7905C4.22656 5.57328 5.67179 7.0185 7.45456 7.0185Z" stroke="#38D982" stroke-linecap="round" stroke-linejoin="round"/>
<path d="M18.7569 15.0896V13.4746C18.7564 12.7594 18.5183 12.0646 18.0801 11.4993C17.6419 10.9341 17.0284 10.5304 16.3359 10.3516" stroke="#38D982" stroke-linecap="round" stroke-linejoin="round"/>
<path d="M13.1055 0.667969C13.8002 0.84549 14.416 1.24925 14.8558 1.81555C15.2955 2.38185 15.5343 3.07846 15.5343 3.79547C15.5343 4.51248 15.2955 5.20909 14.8558 5.77539C14.416 6.34169 13.8002 6.74545 13.1055 6.92297" stroke="#38D982" stroke-linecap="round" stroke-linejoin="round"/>
</svg>
