<svg width="1082" height="497" viewBox="0 0 1082 497" fill="none" xmlns="http://www.w3.org/2000/svg">
<path d="M52.85 465.959C52.9256 468.344 52.4528 470.715 51.4681 472.889C50.4834 475.063 49.0129 476.982 47.17 478.499C43.4431 481.531 38.7413 483.105 33.94 482.929H13.09V474.689H35.26C37.7669 474.767 40.2127 473.907 42.12 472.279C43.0327 471.484 43.7555 470.495 44.2349 469.384C44.7143 468.273 44.9382 467.068 44.89 465.859C44.9421 464.659 44.7197 463.464 44.2396 462.363C43.7596 461.263 43.0346 460.287 42.12 459.509C40.195 457.918 37.7563 457.082 35.26 457.159H8.23999V496.229H0V448.919H33.94C38.7524 448.747 43.4604 450.348 47.17 453.419C49.0196 454.93 50.4947 456.848 51.48 459.023C52.4654 461.198 52.9343 463.572 52.85 465.959Z" fill="#F9FCFB"/>
<path d="M134.319 496.24H93.4492V448.93H134.319V457.17H101.689V488H134.319V496.24ZM132.169 476.35H105.149V468.11H132.169V476.35Z" fill="#F9FCFB"/>
<path d="M218.97 496.24H178.1V448.93H218.97V457.17H186.34V488H218.97V496.24ZM216.82 476.35H189.8V468.11H216.82V476.35Z" fill="#F9FCFB"/>
<path d="M318.099 496.238H305.979L292.749 482.938H274.949V474.698H297.119C299.822 474.788 302.493 474.094 304.809 472.698C305.935 471.992 306.854 471.002 307.474 469.827C308.094 468.652 308.392 467.335 308.339 466.007C308.339 460.117 304.599 457.174 297.119 457.177H270.099V496.247H261.859V448.938H295.799C301.899 448.938 306.819 450.257 310.559 452.897C314.849 455.907 316.996 460.327 316.999 466.157C317.076 469.931 315.735 473.596 313.239 476.427C310.731 479.224 307.426 481.185 303.769 482.047L318.099 496.238Z" fill="#F9FCFB"/>
<path d="M401.3 457.17H368.67V496.24H360.43V448.93H401.3V457.17ZM399.15 476.35H372.13V468.11H399.15V476.35Z" fill="#F9FCFB"/>
<path d="M502.99 472.06C502.99 479.03 500.75 484.803 496.27 489.38C491.79 493.956 486.086 496.243 479.16 496.24H465.93C462.764 496.334 459.612 495.774 456.673 494.593C453.734 493.413 451.071 491.638 448.85 489.38C444.34 484.81 442.09 479.036 442.1 472.06C442.1 465.126 444.33 459.54 448.79 455.3C453.25 451.06 458.966 448.936 465.94 448.93H479.17C486.19 448.93 491.916 451.053 496.35 455.3C500.783 459.546 502.996 465.133 502.99 472.06ZM494.82 472.75C494.894 470.678 494.541 468.613 493.784 466.683C493.028 464.753 491.882 462.999 490.42 461.53C488.936 460.078 487.173 458.942 485.238 458.193C483.302 457.443 481.234 457.095 479.16 457.17H465.93C463.866 457.101 461.811 457.452 459.887 458.202C457.964 458.951 456.213 460.083 454.74 461.53C453.277 462.999 452.132 464.753 451.375 466.683C450.618 468.613 450.266 470.678 450.34 472.75C450.26 474.791 450.611 476.826 451.369 478.723C452.127 480.619 453.275 482.336 454.74 483.76C456.231 485.172 457.988 486.273 459.909 487C461.831 487.726 463.877 488.062 465.93 487.99H479.16C481.223 488.065 483.281 487.73 485.214 487.004C487.147 486.277 488.916 485.175 490.42 483.76C491.884 482.336 493.032 480.619 493.79 478.723C494.548 476.826 494.899 474.791 494.82 472.75Z" fill="#F9FCFB"/>
<path d="M599.84 496.238H587.72L574.49 482.938H556.69V474.698H578.86C581.562 474.788 584.233 474.094 586.55 472.698C587.675 471.992 588.594 471.002 589.214 469.827C589.834 468.652 590.133 467.335 590.08 466.007C590.08 460.117 586.34 457.174 578.86 457.177H551.84V496.247H543.6V448.938H577.54C583.64 448.938 588.56 450.257 592.3 452.897C596.59 455.907 598.736 460.327 598.74 466.157C598.817 469.931 597.475 473.596 594.98 476.427C592.471 479.224 589.166 481.185 585.51 482.047L599.84 496.238Z" fill="#F9FCFB"/>
<path d="M712.899 496.309H703.619L696.759 463.199L680.899 493.749C679.839 495.829 678.362 496.869 676.469 496.869C675.436 496.874 674.425 496.574 673.562 496.006C672.699 495.439 672.023 494.629 671.619 493.679L655.759 463.199L648.969 496.309H639.619L650.179 452.869C650.457 451.626 651.093 450.493 652.009 449.609C652.435 449.169 652.944 448.819 653.508 448.581C654.071 448.342 654.677 448.219 655.289 448.219C657.079 448.219 658.789 449.779 660.399 452.899L676.239 483.929L692.139 452.869C693.759 449.769 695.459 448.229 697.269 448.229C697.891 448.241 698.505 448.377 699.075 448.627C699.645 448.878 700.159 449.238 700.589 449.689C701.47 450.567 702.092 451.671 702.389 452.879L712.899 496.309Z" fill="#F9FCFB"/>
<path d="M817.16 496.237L806.52 496.167L798.61 482.937H776.15L781.12 474.697H793.62L785.42 461.107L764.08 496.247H753.5L779.2 453.437C779.905 452.263 780.82 451.229 781.9 450.387C782.942 449.466 784.254 448.908 785.64 448.797C787.022 448.868 788.34 449.404 789.38 450.317C790.471 451.175 791.387 452.234 792.08 453.437L817.16 496.237Z" fill="#F9FCFB"/>
<path d="M903.06 492.148C903.06 495.198 902.017 496.722 899.93 496.718C898.397 496.718 896.683 495.778 894.79 493.898L864.47 463.408V496.238H856.3V453.008C856.275 451.975 856.592 450.963 857.2 450.128C857.494 449.73 857.881 449.412 858.328 449.201C858.775 448.989 859.267 448.892 859.76 448.918C861.28 448.918 862.85 449.725 864.47 451.338L894.81 481.748V448.918H903.05V492.148H903.06Z" fill="#F9FCFB"/>
<path d="M998.24 496.24H971.5C968.334 496.334 965.183 495.774 962.244 494.593C959.304 493.413 956.641 491.638 954.42 489.38C949.91 484.81 947.66 479.036 947.67 472.06C947.67 465.126 949.897 459.54 954.35 455.3C958.803 451.06 964.52 448.936 971.5 448.93H998.24V457.17H971.5C969.437 457.101 967.381 457.452 965.458 458.202C963.534 458.951 961.783 460.083 960.31 461.53C958.847 462.999 957.702 464.753 956.945 466.683C956.188 468.613 955.836 470.678 955.91 472.75C955.828 474.791 956.178 476.827 956.936 478.724C957.694 480.621 958.844 482.337 960.31 483.76C961.801 485.172 963.559 486.273 965.48 487C967.401 487.726 969.447 488.062 971.5 487.99H998.24V496.24Z" fill="#F9FCFB"/>
<path d="M1081.65 496.24H1040.78V448.93H1081.65V457.17H1049.02V488H1081.65V496.24ZM1079.5 476.35H1052.48V468.11H1079.5V476.35Z" fill="#F9FCFB"/>
<path d="M559.821 358.89C556.681 358.89 553.571 358.8 550.471 358.64C578.229 357.599 605.423 350.492 630.141 337.818C654.86 325.144 676.503 307.212 693.551 285.28C674.168 307.941 649.415 325.382 621.553 336.008C593.692 346.635 563.611 350.108 534.061 346.11C455.771 335.48 396.161 275.28 382.591 201.48C382.411 199.94 382.231 198.4 382.091 196.85L409.771 220.37L369.281 143.57L332.211 217.54L356.181 198.1C356.391 199.45 356.611 200.79 356.851 202.13C366.891 297.37 447.671 371.83 545.521 371.83C578.778 371.81 611.446 363.053 640.254 346.437C669.063 329.82 693 305.927 709.671 277.15C693.519 302.217 671.339 322.833 645.161 337.113C618.982 351.393 589.641 358.88 559.821 358.89Z" fill="#FE648D"/>
<path d="M725.461 173.73C725.251 172.38 725.021 171.04 724.791 169.7C714.751 74.46 633.971 0 536.121 0C502.864 0.0204808 470.196 8.77718 441.387 25.3936C412.579 42.0099 388.641 65.9028 371.971 94.6799C388.129 69.6185 410.312 49.0076 436.492 34.7317C462.671 20.4558 492.012 12.9703 521.831 12.96C524.971 12.96 528.081 13.05 531.181 13.21C503.422 14.2515 476.228 21.3586 451.51 34.0322C426.792 46.7058 405.148 64.6383 388.101 86.5698C407.483 63.9091 432.237 46.4683 460.098 35.8418C487.96 25.2153 518.041 21.7423 547.591 25.74C625.881 36.37 685.491 96.5699 699.061 170.37C699.241 171.91 699.421 173.45 699.561 175L671.881 151.48L712.371 228.28L749.441 154.31L725.461 173.73Z" fill="#FE648D"/>
<path d="M482.07 179.43H460.07V272.43H482.07V179.43Z" fill="#FE648D"/>
<path d="M621.57 179.93H599.57V272.93H621.57V179.93Z" fill="#FE648D"/>
<path d="M551.57 98.9297H529.57V272.93H551.57V98.9297Z" fill="#FE648D"/>
</svg>
